<svg xmlns="http://www.w3.org/2000/svg" width="1984" height="1189" viewBox="0 0 1984 1189" role="img" aria-label="MultiQ execution stage 2"><defs><filter id="blur"><feGaussianBlur stdDeviation="8"/></filter></defs><rect width="1984" height="1189" fill="white"/><rect x="557" y="62" width="870" height="150" fill="white" stroke="#A785C1" stroke-width="3"/><text x="557.0" y="53.0" text-anchor="start" dominant-baseline="middle" font-family="Arial, PingFang SC, sans-serif" font-size="19" font-weight="700" fill="#A785C1">RZ0</text><rect x="557" y="977" width="870" height="150" fill="white" stroke="#A785C1" stroke-width="3"/><text x="557.0" y="968.0" text-anchor="start" dominant-baseline="middle" font-family="Arial, PingFang SC, sans-serif" font-size="19" font-weight="700" fill="#A785C1">RZ1</text><rect x="62" y="407" width="270" height="450" fill="white" stroke="#70B694" stroke-width="3"/><text x="62.0" y="398.0" text-anchor="start" dominant-baseline="middle" font-family="Arial, PingFang SC, sans-serif" font-size="19" font-weight="700" fill="#70B694">SZ0</text><rect x="1652" y="407" width="270" height="450" fill="white" stroke="#70B694" stroke-width="3"/><text x="1652.0" y="398.0" text-anchor="start" dominant-baseline="middle" font-family="Arial, PingFang SC, sans-serif" font-size="19" font-weight="700" fill="#70B694">SZ1</text><rect x="362" y="272" width="1260" height="630" fill="white" stroke="#709DCC" stroke-width="3"/><text x="362.0" y="263.0" text-anchor="start" dominant-baseline="middle" font-family="Arial, PingFang SC, sans-serif" font-size="19" font-weight="700" fill="#709DCC">EZ</text><line x1="1757" y1="752" x2="1817" y2="752" stroke="#DCECF7" stroke-width="68" stroke-linecap="round"/><line x1="1757" y1="752" x2="1757" y2="692" stroke="#DCECF7" stroke-width="68" stroke-linecap="round"/><line x1="1817" y1="752" x2="1817" y2="692" stroke="#DCECF7" stroke-width="68" stroke-linecap="round"/><line x1="1757" y1="692" x2="1697" y2="692" stroke="#DCECF7" stroke-width="68" stroke-linecap="round"/><line x1="1697" y1="692" x2="1697" y2="632" stroke="#DCECF7" stroke-width="68" stroke-linecap="round"/><line x1="1757" y1="692" x2="1757" y2="632" stroke="#DCECF7" stroke-width="68" stroke-linecap="round"/><line x1="1817" y1="692" x2="1877" y2="692" stroke="#DCECF7" stroke-width="68" stroke-linecap="round"/><line x1="1817" y1="692" x2="1817" y2="632" stroke="#DCECF7" stroke-width="68" stroke-linecap="round"/><line x1="1877" y1="692" x2="1877" y2="632" stroke="#DCECF7" stroke-width="68" stroke-linecap="round"/><line x1="1697" y1="632" x2="1697" y2="572" stroke="#DCECF7" stroke-width="68" stroke-linecap="round"/><line x1="1757" y1="632" x2="1757" y2="572" stroke="#DCECF7" stroke-width="68" stroke-linecap="round"/><line x1="1817" y1="632" x2="1817" y2="572" stroke="#DCECF7" stroke-width="68" stroke-linecap="round"/><line x1="1877" y1="632" x2="1877" y2="572" stroke="#DCECF7" stroke-width="68" stroke-linecap="round"/><line x1="1757" y1="572" x2="1757" y2="512" stroke="#DCECF7" stroke-width="68" stroke-linecap="round"/><line x1="1817" y1="572" x2="1817" y2="512" stroke="#DCECF7" stroke-width="68" stroke-linecap="round"/><rect x="1723" y="718" width="68" height="68" rx="15" fill="#DCECF7"/><rect x="1783" y="718" width="68" height="68" rx="15" fill="#DCECF7"/><rect x="1663" y="658" width="68" height="68" rx="15" fill="#DCECF7"/><rect x="1723" y="658" width="68" height="68" rx="15" fill="#DCECF7"/><rect x="1783" y="658" width="68" height="68" rx="15" fill="#DCECF7"/><rect x="1843" y="658" width="68" height="68" rx="15" fill="#DCECF7"/><rect x="1663" y="598" width="68" height="68" rx="15" fill="#DCECF7"/><rect x="1723" y="598" width="68" height="68" rx="15" fill="#DCECF7"/><rect x="1783" y="598" width="68" height="68" rx="15" fill="#DCECF7"/><rect x="1843" y="598" width="68" height="68" rx="15" fill="#DCECF7"/><rect x="1663" y="538" width="68" height="68" rx="15" fill="#DCECF7"/><rect x="1723" y="538" width="68" height="68" rx="15" fill="#DCECF7"/><rect x="1783" y="538" width="68" height="68" rx="15" fill="#DCECF7"/><rect x="1843" y="538" width="68" height="68" rx="15" fill="#DCECF7"/><rect x="1723" y="478" width="68" height="68" rx="15" fill="#DCECF7"/><rect x="1783" y="478" width="68" height="68" rx="15" fill="#DCECF7"/><line x1="167" y1="572" x2="227" y2="572" stroke="#F7EFC8" stroke-width="68" stroke-linecap="round"/><line x1="167" y1="572" x2="167" y2="512" stroke="#F7EFC8" stroke-width="68" stroke-linecap="round"/><line x1="227" y1="572" x2="227" y2="512" stroke="#F7EFC8" stroke-width="68" stroke-linecap="round"/><line x1="167" y1="512" x2="107" y2="512" stroke="#F7EFC8" stroke-width="68" stroke-linecap="round"/><line x1="107" y1="512" x2="107" y2="452" stroke="#F7EFC8" stroke-width="68" stroke-linecap="round"/><line x1="167" y1="512" x2="167" y2="452" stroke="#F7EFC8" stroke-width="68" stroke-linecap="round"/><line x1="227" y1="512" x2="227" y2="452" stroke="#F7EFC8" stroke-width="68" stroke-linecap="round"/><rect x="133" y="538" width="68" height="68" rx="15" fill="#F7EFC8"/><rect x="193" y="538" width="68" height="68" rx="15" fill="#F7EFC8"/><rect x="73" y="478" width="68" height="68" rx="15" fill="#F7EFC8"/><rect x="133" y="478" width="68" height="68" rx="15" fill="#F7EFC8"/><rect x="193" y="478" width="68" height="68" rx="15" fill="#F7EFC8"/><rect x="73" y="418" width="68" height="68" rx="15" fill="#F7EFC8"/><rect x="133" y="418" width="68" height="68" rx="15" fill="#F7EFC8"/><rect x="193" y="418" width="68" height="68" rx="15" fill="#F7EFC8"/><line x1="227" y1="752" x2="287" y2="752" stroke="#DDF2E7" stroke-width="68" stroke-linecap="round"/><line x1="227" y1="752" x2="227" y2="692" stroke="#DDF2E7" stroke-width="68" stroke-linecap="round"/><line x1="287" y1="752" x2="287" y2="692" stroke="#DDF2E7" stroke-width="68" stroke-linecap="round"/><rect x="193" y="718" width="68" height="68" rx="15" fill="#DDF2E7"/><rect x="253" y="718" width="68" height="68" rx="15" fill="#DDF2E7"/><rect x="193" y="658" width="68" height="68" rx="15" fill="#DDF2E7"/><rect x="253" y="658" width="68" height="68" rx="15" fill="#DDF2E7"/><circle cx="602" cy="167" r="14" fill="#FFFDF8" stroke="#54605B" stroke-width="3" stroke-dasharray="5 4"/><circle cx="662" cy="167" r="14" fill="#FFFDF8" stroke="#54605B" stroke-width="3" stroke-dasharray="5 4"/><circle cx="722" cy="167" r="14" fill="#FFFDF8" stroke="#54605B" stroke-width="3" stroke-dasharray="5 4"/><circle cx="782" cy="167" r="14" fill="#FFFDF8" stroke="#54605B" stroke-width="3" stroke-dasharray="5 4"/><circle cx="842" cy="167" r="14" fill="#FFFDF8" stroke="#54605B" stroke-width="3" stroke-dasharray="5 4"/><circle cx="902" cy="167" r="14" fill="#FFFDF8" stroke="#54605B" stroke-width="3" stroke-dasharray="5 4"/><circle cx="962" cy="167" r="14" fill="#FFFDF8" stroke="#54605B" stroke-width="3" stroke-dasharray="5 4"/><circle cx="1022" cy="167" r="14" fill="#FFFDF8" stroke="#54605B" stroke-width="3" stroke-dasharray="5 4"/><circle cx="1082" cy="167" r="14" fill="#FFFDF8" stroke="#54605B" stroke-width="3" stroke-dasharray="5 4"/><circle cx="1142" cy="167" r="14" fill="#FFFDF8" stroke="#54605B" stroke-width="3" stroke-dasharray="5 4"/><circle cx="1202" cy="167" r="14" fill="#FFFDF8" stroke="#54605B" stroke-width="3" stroke-dasharray="5 4"/><circle cx="1262" cy="167" r="14" fill="#FFFDF8" stroke="#54605B" stroke-width="3" stroke-dasharray="5 4"/><circle cx="1322" cy="167" r="14" fill="#FFFDF8" stroke="#54605B" stroke-width="3" stroke-dasharray="5 4"/><circle cx="1382" cy="167" r="14" fill="#FFFDF8" stroke="#54605B" stroke-width="3" stroke-dasharray="5 4"/><circle cx="602" cy="107" r="14" fill="#FFFDF8" stroke="#54605B" stroke-width="3" stroke-dasharray="5 4"/><circle cx="662" cy="107" r="14" fill="#FFFDF8" stroke="#54605B" stroke-width="3" stroke-dasharray="5 4"/><circle cx="722" cy="107" r="14" fill="#FFFDF8" stroke="#54605B" stroke-width="3" stroke-dasharray="5 4"/><circle cx="782" cy="107" r="14" fill="#FFFDF8" stroke="#54605B" stroke-width="3" stroke-dasharray="5 4"/><circle cx="842" cy="107" r="14" fill="#FFFDF8" stroke="#54605B" stroke-width="3" stroke-dasharray="5 4"/><circle cx="902" cy="107" r="14" fill="#FFFDF8" stroke="#54605B" stroke-width="3" stroke-dasharray="5 4"/><circle cx="962" cy="107" r="14" fill="#FFFDF8" stroke="#54605B" stroke-width="3" stroke-dasharray="5 4"/><circle cx="1022" cy="107" r="14" fill="#FFFDF8" stroke="#54605B" stroke-width="3" stroke-dasharray="5 4"/><circle cx="1082" cy="107" r="14" fill="#FFFDF8" stroke="#54605B" stroke-width="3" stroke-dasharray="5 4"/><circle cx="1142" cy="107" r="14" fill="#FFFDF8" stroke="#54605B" stroke-width="3" stroke-dasharray="5 4"/><circle cx="1202" cy="107" r="14" fill="#FFFDF8" stroke="#54605B" stroke-width="3" stroke-dasharray="5 4"/><circle cx="1262" cy="107" r="14" fill="#FFFDF8" stroke="#54605B" stroke-width="3" stroke-dasharray="5 4"/><circle cx="1322" cy="107" r="14" fill="#FFFDF8" stroke="#54605B" stroke-width="3" stroke-dasharray="5 4"/><circle cx="1382" cy="107" r="14" fill="#FFFDF8" stroke="#54605B" stroke-width="3" stroke-dasharray="5 4"/><circle cx="602" cy="1082" r="14" fill="#FFFDF8" stroke="#54605B" stroke-width="3" stroke-dasharray="5 4"/><circle cx="662" cy="1082" r="14" fill="#FFFDF8" stroke="#54605B" stroke-width="3" stroke-dasharray="5 4"/><circle cx="722" cy="1082" r="14" fill="#FFFDF8" stroke="#54605B" stroke-width="3" stroke-dasharray="5 4"/><circle cx="782" cy="1082" r="14" fill="#FFFDF8" stroke="#54605B" stroke-width="3" stroke-dasharray="5 4"/><circle cx="842" cy="1082" r="14" fill="#FFFDF8" stroke="#54605B" stroke-width="3" stroke-dasharray="5 4"/><circle cx="902" cy="1082" r="14" fill="#FFFDF8" stroke="#54605B" stroke-width="3" stroke-dasharray="5 4"/><circle cx="962" cy="1082" r="14" fill="#FFFDF8" stroke="#54605B" stroke-width="3" stroke-dasharray="5 4"/><circle cx="1022" cy="1082" r="14" fill="#FFFDF8" stroke="#54605B" stroke-width="3" stroke-dasharray="5 4"/><circle cx="1082" cy="1082" r="14" fill="#FFFDF8" stroke="#54605B" stroke-width="3" stroke-dasharray="5 4"/><circle cx="1142" cy="1082" r="14" fill="#FFFDF8" stroke="#54605B" stroke-width="3" stroke-dasharray="5 4"/><circle cx="1202" cy="1082" r="14" fill="#FFFDF8" stroke="#54605B" stroke-width="3" stroke-dasharray="5 4"/><circle cx="1262" cy="1082" r="14" fill="#FFFDF8" stroke="#54605B" stroke-width="3" stroke-dasharray="5 4"/><circle cx="1322" cy="1082" r="14" fill="#FFFDF8" stroke="#54605B" stroke-width="3" stroke-dasharray="5 4"/><circle cx="1382" cy="1082" r="14" fill="#FFFDF8" stroke="#54605B" stroke-width="3" stroke-dasharray="5 4"/><circle cx="602" cy="1022" r="14" fill="#FFFDF8" stroke="#54605B" stroke-width="3" stroke-dasharray="5 4"/><circle cx="662" cy="1022" r="14" fill="#FFFDF8" stroke="#54605B" stroke-width="3" stroke-dasharray="5 4"/><circle cx="722" cy="1022" r="14" fill="#FFFDF8" stroke="#54605B" stroke-width="3" stroke-dasharray="5 4"/><circle cx="782" cy="1022" r="14" fill="#FFFDF8" stroke="#54605B" stroke-width="3" stroke-dasharray="5 4"/><circle cx="842" cy="1022" r="14" fill="#FFFDF8" stroke="#54605B" stroke-width="3" stroke-dasharray="5 4"/><circle cx="902" cy="1022" r="14" fill="#FFFDF8" stroke="#54605B" stroke-width="3" stroke-dasharray="5 4"/><circle cx="962" cy="1022" r="14" fill="#FFFDF8" stroke="#54605B" stroke-width="3" stroke-dasharray="5 4"/><circle cx="1022" cy="1022" r="14" fill="#FFFDF8" stroke="#54605B" stroke-width="3" stroke-dasharray="5 4"/><circle cx="1082" cy="1022" r="14" fill="#FFFDF8" stroke="#54605B" stroke-width="3" stroke-dasharray="5 4"/><circle cx="1142" cy="1022" r="14" fill="#FFFDF8" stroke="#54605B" stroke-width="3" stroke-dasharray="5 4"/><circle cx="1202" cy="1022" r="14" fill="#FFFDF8" stroke="#54605B" stroke-width="3" stroke-dasharray="5 4"/><circle cx="1262" cy="1022" r="14" fill="#FFFDF8" stroke="#54605B" stroke-width="3" stroke-dasharray="5 4"/><circle cx="1322" cy="1022" r="14" fill="#FFFDF8" stroke="#54605B" stroke-width="3" stroke-dasharray="5 4"/><circle cx="1382" cy="1022" r="14" fill="#FFFDF8" stroke="#54605B" stroke-width="3" stroke-dasharray="5 4"/><circle cx="107" cy="812" r="14" fill="#FFFDF8" stroke="#54605B" stroke-width="3" stroke-dasharray="5 4"/><circle cx="167" cy="812" r="14" fill="#FFFDF8" stroke="#54605B" stroke-width="3" stroke-dasharray="5 4"/><circle cx="227" cy="812" r="14" fill="#FFFDF8" stroke="#54605B" stroke-width="3" stroke-dasharray="5 4"/><circle cx="287" cy="812" r="14" fill="#FFFDF8" stroke="#54605B" stroke-width="3" stroke-dasharray="5 4"/><circle cx="107" cy="752" r="14" fill="#FFFDF8" stroke="#54605B" stroke-width="3" stroke-dasharray="5 4"/><circle cx="167" cy="752" r="14" fill="#FFFDF8" stroke="#54605B" stroke-width="3" stroke-dasharray="5 4"/><circle cx="227" cy="752" r="14" fill="#FFFDF8" stroke="#23496e" stroke-width="3"/><circle cx="287" cy="752" r="14" fill="#FFFDF8" stroke="#23496e" stroke-width="3"/><circle cx="107" cy="692" r="14" fill="#FFFDF8" stroke="#54605B" stroke-width="3" stroke-dasharray="5 4"/><circle cx="167" cy="692" r="14" fill="#FFFDF8" stroke="#54605B" stroke-width="3" stroke-dasharray="5 4"/><circle cx="227" cy="692" r="14" fill="#FFFDF8" stroke="#23496e" stroke-width="3"/><circle cx="287" cy="692" r="14" fill="#FFFDF8" stroke="#23496e" stroke-width="3"/><circle cx="107" cy="632" r="14" fill="#FFFDF8" stroke="#54605B" stroke-width="3" stroke-dasharray="5 4"/><circle cx="167" cy="632" r="14" fill="#FFFDF8" stroke="#54605B" stroke-width="3" stroke-dasharray="5 4"/><circle cx="227" cy="632" r="14" fill="#FFFDF8" stroke="#54605B" stroke-width="3" stroke-dasharray="5 4"/><circle cx="287" cy="632" r="14" fill="#FFFDF8" stroke="#54605B" stroke-width="3" stroke-dasharray="5 4"/><circle cx="107" cy="572" r="14" fill="#FFFDF8" stroke="#54605B" stroke-width="3" stroke-dasharray="5 4"/><circle cx="167" cy="572" r="14" fill="#FFFDF8" stroke="#23496e" stroke-width="3"/><circle cx="227" cy="572" r="14" fill="#FFFDF8" stroke="#23496e" stroke-width="3"/><circle cx="287" cy="572" r="14" fill="#FFFDF8" stroke="#54605B" stroke-width="3" stroke-dasharray="5 4"/><circle cx="107" cy="512" r="14" fill="#FFFDF8" stroke="#23496e" stroke-width="3"/><circle cx="167" cy="512" r="14" fill="#FFFDF8" stroke="#23496e" stroke-width="3"/><circle cx="227" cy="512" r="14" fill="#FFFDF8" stroke="#23496e" stroke-width="3"/><circle cx="287" cy="512" r="14" fill="#FFFDF8" stroke="#54605B" stroke-width="3" stroke-dasharray="5 4"/><circle cx="107" cy="452" r="14" fill="#FFFDF8" stroke="#23496e" stroke-width="3"/><circle cx="167" cy="452" r="14" fill="#FFFDF8" stroke="#23496e" stroke-width="3"/><circle cx="227" cy="452" r="14" fill="#FFFDF8" stroke="#23496e" stroke-width="3"/><circle cx="287" cy="452" r="14" fill="#FFFDF8" stroke="#54605B" stroke-width="3" stroke-dasharray="5 4"/><circle cx="1697" cy="812" r="14" fill="#FFFDF8" stroke="#54605B" stroke-width="3" stroke-dasharray="5 4"/><circle cx="1757" cy="812" r="14" fill="#FFFDF8" stroke="#54605B" stroke-width="3" stroke-dasharray="5 4"/><circle cx="1817" cy="812" r="14" fill="#FFFDF8" stroke="#54605B" stroke-width="3" stroke-dasharray="5 4"/><circle cx="1877" cy="812" r="14" fill="#FFFDF8" stroke="#54605B" stroke-width="3" stroke-dasharray="5 4"/><circle cx="1697" cy="752" r="14" fill="#FFFDF8" stroke="#54605B" stroke-width="3" stroke-dasharray="5 4"/><circle cx="1757" cy="752" r="14" fill="#FFFDF8" stroke="#23496e" stroke-width="3"/><circle cx="1817" cy="752" r="14" fill="#FFFDF8" stroke="#23496e" stroke-width="3"/><circle cx="1877" cy="752" r="14" fill="#FFFDF8" stroke="#54605B" stroke-width="3" stroke-dasharray="5 4"/><circle cx="1697" cy="692" r="14" fill="#FFFDF8" stroke="#23496e" stroke-width="3"/><circle cx="1757" cy="692" r="14" fill="#FFFDF8" stroke="#23496e" stroke-width="3"/><circle cx="1817" cy="692" r="14" fill="#FFFDF8" stroke="#23496e" stroke-width="3"/><circle cx="1877" cy="692" r="14" fill="#FFFDF8" stroke="#23496e" stroke-width="3"/><circle cx="1697" cy="632" r="14" fill="#FFFDF8" stroke="#23496e" stroke-width="3"/><circle cx="1757" cy="632" r="14" fill="#FFFDF8" stroke="#23496e" stroke-width="3"/><circle cx="1817" cy="632" r="14" fill="#FFFDF8" stroke="#23496e" stroke-width="3"/><circle cx="1877" cy="632" r="14" fill="#FFFDF8" stroke="#23496e" stroke-width="3"/><circle cx="1697" cy="572" r="14" fill="#FFFDF8" stroke="#23496e" stroke-width="3"/><circle cx="1757" cy="572" r="14" fill="#FFFDF8" stroke="#23496e" stroke-width="3"/><circle cx="1817" cy="572" r="14" fill="#FFFDF8" stroke="#23496e" stroke-width="3"/><circle cx="1877" cy="572" r="14" fill="#FFFDF8" stroke="#23496e" stroke-width="3"/><circle cx="1697" cy="512" r="14" fill="#FFFDF8" stroke="#54605B" stroke-width="3" stroke-dasharray="5 4"/><circle cx="1757" cy="512" r="14" fill="#FFFDF8" stroke="#23496e" stroke-width="3"/><circle cx="1817" cy="512" r="14" fill="#FFFDF8" stroke="#23496e" stroke-width="3"/><circle cx="1877" cy="512" r="14" fill="#FFFDF8" stroke="#54605B" stroke-width="3" stroke-dasharray="5 4"/><circle cx="1697" cy="452" r="14" fill="#FFFDF8" stroke="#54605B" stroke-width="3" stroke-dasharray="5 4"/><circle cx="1757" cy="452" r="14" fill="#FFFDF8" stroke="#54605B" stroke-width="3" stroke-dasharray="5 4"/><circle cx="1817" cy="452" r="14" fill="#FFFDF8" stroke="#54605B" stroke-width="3" stroke-dasharray="5 4"/><circle cx="1877" cy="452" r="14" fill="#FFFDF8" stroke="#54605B" stroke-width="3" stroke-dasharray="5 4"/><circle cx="437" cy="812" r="14" fill="#FFFDF8" stroke="#54605B" stroke-width="3" stroke-dasharray="5 4"/><circle cx="467" cy="812" r="14" fill="#FFFDF8" stroke="#54605B" stroke-width="3" stroke-dasharray="5 4"/><circle cx="617" cy="812" r="14" fill="#FFFDF8" stroke="#54605B" stroke-width="3" stroke-dasharray="5 4"/><circle cx="647" cy="812" r="14" fill="#FFFDF8" stroke="#54605B" stroke-width="3" stroke-dasharray="5 4"/><circle cx="797" cy="812" r="14" fill="#FFFDF8" stroke="#54605B" stroke-width="3" stroke-dasharray="5 4"/><circle cx="827" cy="812" r="14" fill="#FFFDF8" stroke="#54605B" stroke-width="3" stroke-dasharray="5 4"/><circle cx="977" cy="812" r="14" fill="#FFFDF8" stroke="#54605B" stroke-width="3" stroke-dasharray="5 4"/><circle cx="1007" cy="812" r="14" fill="#FFFDF8" stroke="#54605B" stroke-width="3" stroke-dasharray="5 4"/><circle cx="1157" cy="812" r="14" fill="#FFFDF8" stroke="#54605B" stroke-width="3" stroke-dasharray="5 4"/><circle cx="1187" cy="812" r="14" fill="#FFFDF8" stroke="#54605B" stroke-width="3" stroke-dasharray="5 4"/><circle cx="1337" cy="812" r="14" fill="#FFFDF8" stroke="#54605B" stroke-width="3" stroke-dasharray="5 4"/><circle cx="1367" cy="812" r="14" fill="#FFFDF8" stroke="#54605B" stroke-width="3" stroke-dasharray="5 4"/><circle cx="1517" cy="812" r="14" fill="#FFFDF8" stroke="#54605B" stroke-width="3" stroke-dasharray="5 4"/><circle cx="1547" cy="812" r="14" fill="#FFFDF8" stroke="#54605B" stroke-width="3" stroke-dasharray="5 4"/><circle cx="437" cy="662" r="14" fill="#FFFDF8" stroke="#54605B" stroke-width="3" stroke-dasharray="5 4"/><circle cx="467" cy="662" r="14" fill="#FFFDF8" stroke="#54605B" stroke-width="3" stroke-dasharray="5 4"/><circle cx="617" cy="662" r="14" fill="#FFFDF8" stroke="#54605B" stroke-width="3" stroke-dasharray="5 4"/><circle cx="647" cy="662" r="14" fill="#FFFDF8" stroke="#54605B" stroke-width="3" stroke-dasharray="5 4"/><circle cx="797" cy="662" r="14" fill="#FFFDF8" stroke="#54605B" stroke-width="3" stroke-dasharray="5 4"/><circle cx="827" cy="662" r="14" fill="#FFFDF8" stroke="#54605B" stroke-width="3" stroke-dasharray="5 4"/><circle cx="977" cy="662" r="14" fill="#FFFDF8" stroke="#54605B" stroke-width="3" stroke-dasharray="5 4"/><circle cx="1007" cy="662" r="14" fill="#FFFDF8" stroke="#54605B" stroke-width="3" stroke-dasharray="5 4"/><circle cx="1157" cy="662" r="14" fill="#FFFDF8" stroke="#54605B" stroke-width="3" stroke-dasharray="5 4"/><circle cx="1187" cy="662" r="14" fill="#FFFDF8" stroke="#54605B" stroke-width="3" stroke-dasharray="5 4"/><circle cx="1337" cy="662" r="14" fill="#FFFDF8" stroke="#54605B" stroke-width="3" stroke-dasharray="5 4"/><circle cx="1367" cy="662" r="14" fill="#FFFDF8" stroke="#54605B" stroke-width="3" stroke-dasharray="5 4"/><circle cx="1517" cy="662" r="14" fill="#FFFDF8" stroke="#54605B" stroke-width="3" stroke-dasharray="5 4"/><circle cx="1547" cy="662" r="14" fill="#FFFDF8" stroke="#54605B" stroke-width="3" stroke-dasharray="5 4"/><circle cx="437" cy="512" r="14" fill="#FFFDF8" stroke="#54605B" stroke-width="3" stroke-dasharray="5 4"/><circle cx="467" cy="512" r="14" fill="#FFFDF8" stroke="#54605B" stroke-width="3" stroke-dasharray="5 4"/><circle cx="617" cy="512" r="14" fill="#FFFDF8" stroke="#54605B" stroke-width="3" stroke-dasharray="5 4"/><circle cx="647" cy="512" r="14" fill="#FFFDF8" stroke="#54605B" stroke-width="3" stroke-dasharray="5 4"/><circle cx="797" cy="512" r="14" fill="#FFFDF8" stroke="#54605B" stroke-width="3" stroke-dasharray="5 4"/><circle cx="827" cy="512" r="14" fill="#FFFDF8" stroke="#54605B" stroke-width="3" stroke-dasharray="5 4"/><circle cx="977" cy="512" r="14" fill="#FFFDF8" stroke="#54605B" stroke-width="3" stroke-dasharray="5 4"/><circle cx="1007" cy="512" r="14" fill="#FFFDF8" stroke="#54605B" stroke-width="3" stroke-dasharray="5 4"/><circle cx="1157" cy="512" r="14" fill="#FFFDF8" stroke="#54605B" stroke-width="3" stroke-dasharray="5 4"/><circle cx="1187" cy="512" r="14" fill="#FFFDF8" stroke="#54605B" stroke-width="3" stroke-dasharray="5 4"/><circle cx="1337" cy="512" r="14" fill="#FFFDF8" stroke="#54605B" stroke-width="3" stroke-dasharray="5 4"/><circle cx="1367" cy="512" r="14" fill="#FFFDF8" stroke="#54605B" stroke-width="3" stroke-dasharray="5 4"/><circle cx="1517" cy="512" r="14" fill="#FFFDF8" stroke="#54605B" stroke-width="3" stroke-dasharray="5 4"/><circle cx="1547" cy="512" r="14" fill="#FFFDF8" stroke="#54605B" stroke-width="3" stroke-dasharray="5 4"/><circle cx="437" cy="362" r="14" fill="#FFFDF8" stroke="#54605B" stroke-width="3" stroke-dasharray="5 4"/><circle cx="467" cy="362" r="14" fill="#FFFDF8" stroke="#54605B" stroke-width="3" stroke-dasharray="5 4"/><circle cx="617" cy="362" r="14" fill="#FFFDF8" stroke="#54605B" stroke-width="3" stroke-dasharray="5 4"/><circle cx="647" cy="362" r="14" fill="#FFFDF8" stroke="#54605B" stroke-width="3" stroke-dasharray="5 4"/><circle cx="797" cy="362" r="14" fill="#FFFDF8" stroke="#54605B" stroke-width="3" stroke-dasharray="5 4"/><circle cx="827" cy="362" r="14" fill="#FFFDF8" stroke="#54605B" stroke-width="3" stroke-dasharray="5 4"/><circle cx="977" cy="362" r="14" fill="#FFFDF8" stroke="#54605B" stroke-width="3" stroke-dasharray="5 4"/><circle cx="1007" cy="362" r="14" fill="#FFFDF8" stroke="#54605B" stroke-width="3" stroke-dasharray="5 4"/><circle cx="1157" cy="362" r="14" fill="#FFFDF8" stroke="#54605B" stroke-width="3" stroke-dasharray="5 4"/><circle cx="1187" cy="362" r="14" fill="#FFFDF8" stroke="#54605B" stroke-width="3" stroke-dasharray="5 4"/><circle cx="1337" cy="362" r="14" fill="#FFFDF8" stroke="#54605B" stroke-width="3" stroke-dasharray="5 4"/><circle cx="1367" cy="362" r="14" fill="#FFFDF8" stroke="#54605B" stroke-width="3" stroke-dasharray="5 4"/><circle cx="1517" cy="362" r="14" fill="#FFFDF8" stroke="#54605B" stroke-width="3" stroke-dasharray="5 4"/><circle cx="1547" cy="362" r="14" fill="#FFFDF8" stroke="#54605B" stroke-width="3" stroke-dasharray="5 4"/><text x="1757.0" y="752.0" text-anchor="middle" dominant-baseline="middle" font-family="Arial, PingFang SC, sans-serif" font-size="13" font-weight="700" fill="#2E6F98" stroke="#FFFDF8" stroke-width="1" paint-order="stroke">0</text><text x="1817.0" y="752.0" text-anchor="middle" dominant-baseline="middle" font-family="Arial, PingFang SC, sans-serif" font-size="13" font-weight="700" fill="#2E6F98" stroke="#FFFDF8" stroke-width="1" paint-order="stroke">1</text><text x="1697.0" y="692.0" text-anchor="middle" dominant-baseline="middle" font-family="Arial, PingFang SC, sans-serif" font-size="13" font-weight="700" fill="#2E6F98" stroke="#FFFDF8" stroke-width="1" paint-order="stroke">2</text><text x="1757.0" y="692.0" text-anchor="middle" dominant-baseline="middle" font-family="Arial, PingFang SC, sans-serif" font-size="13" font-weight="700" fill="#2E6F98" stroke="#FFFDF8" stroke-width="1" paint-order="stroke">3</text><text x="1817.0" y="692.0" text-anchor="middle" dominant-baseline="middle" font-family="Arial, PingFang SC, sans-serif" font-size="13" font-weight="700" fill="#2E6F98" stroke="#FFFDF8" stroke-width="1" paint-order="stroke">4</text><text x="1877.0" y="692.0" text-anchor="middle" dominant-baseline="middle" font-family="Arial, PingFang SC, sans-serif" font-size="13" font-weight="700" fill="#2E6F98" stroke="#FFFDF8" stroke-width="1" paint-order="stroke">5</text><text x="1697.0" y="632.0" text-anchor="middle" dominant-baseline="middle" font-family="Arial, PingFang SC, sans-serif" font-size="13" font-weight="700" fill="#2E6F98" stroke="#FFFDF8" stroke-width="1" paint-order="stroke">6</text><text x="1757.0" y="632.0" text-anchor="middle" dominant-baseline="middle" font-family="Arial, PingFang SC, sans-serif" font-size="13" font-weight="700" fill="#2E6F98" stroke="#FFFDF8" stroke-width="1" paint-order="stroke">7</text><text x="1817.0" y="632.0" text-anchor="middle" dominant-baseline="middle" font-family="Arial, PingFang SC, sans-serif" font-size="13" font-weight="700" fill="#2E6F98" stroke="#FFFDF8" stroke-width="1" paint-order="stroke">8</text><text x="1877.0" y="632.0" text-anchor="middle" dominant-baseline="middle" font-family="Arial, PingFang SC, sans-serif" font-size="13" font-weight="700" fill="#2E6F98" stroke="#FFFDF8" stroke-width="1" paint-order="stroke">9</text><text x="1697.0" y="572.0" text-anchor="middle" dominant-baseline="middle" font-family="Arial, PingFang SC, sans-serif" font-size="13" font-weight="700" fill="#2E6F98" stroke="#FFFDF8" stroke-width="1" paint-order="stroke">10</text><text x="1757.0" y="572.0" text-anchor="middle" dominant-baseline="middle" font-family="Arial, PingFang SC, sans-serif" font-size="13" font-weight="700" fill="#2E6F98" stroke="#FFFDF8" stroke-width="1" paint-order="stroke">11</text><text x="1817.0" y="572.0" text-anchor="middle" dominant-baseline="middle" font-family="Arial, PingFang SC, sans-serif" font-size="13" font-weight="700" fill="#2E6F98" stroke="#FFFDF8" stroke-width="1" paint-order="stroke">12</text><text x="1877.0" y="572.0" text-anchor="middle" dominant-baseline="middle" font-family="Arial, PingFang SC, sans-serif" font-size="13" font-weight="700" fill="#2E6F98" stroke="#FFFDF8" stroke-width="1" paint-order="stroke">13</text><text x="1757.0" y="512.0" text-anchor="middle" dominant-baseline="middle" font-family="Arial, PingFang SC, sans-serif" font-size="13" font-weight="700" fill="#2E6F98" stroke="#FFFDF8" stroke-width="1" paint-order="stroke">14</text><text x="1817.0" y="512.0" text-anchor="middle" dominant-baseline="middle" font-family="Arial, PingFang SC, sans-serif" font-size="13" font-weight="700" fill="#2E6F98" stroke="#FFFDF8" stroke-width="1" paint-order="stroke">15</text><text x="167.0" y="572.0" text-anchor="middle" dominant-baseline="middle" font-family="Arial, PingFang SC, sans-serif" font-size="13" font-weight="700" fill="#8C7E16" stroke="#FFFDF8" stroke-width="1" paint-order="stroke">0</text><text x="227.0" y="572.0" text-anchor="middle" dominant-baseline="middle" font-family="Arial, PingFang SC, sans-serif" font-size="13" font-weight="700" fill="#8C7E16" stroke="#FFFDF8" stroke-width="1" paint-order="stroke">1</text><text x="107.0" y="512.0" text-anchor="middle" dominant-baseline="middle" font-family="Arial, PingFang SC, sans-serif" font-size="13" font-weight="700" fill="#8C7E16" stroke="#FFFDF8" stroke-width="1" paint-order="stroke">2</text><text x="167.0" y="512.0" text-anchor="middle" dominant-baseline="middle" font-family="Arial, PingFang SC, sans-serif" font-size="13" font-weight="700" fill="#8C7E16" stroke="#FFFDF8" stroke-width="1" paint-order="stroke">3</text><text x="227.0" y="512.0" text-anchor="middle" dominant-baseline="middle" font-family="Arial, PingFang SC, sans-serif" font-size="13" font-weight="700" fill="#8C7E16" stroke="#FFFDF8" stroke-width="1" paint-order="stroke">4</text><text x="107.0" y="452.0" text-anchor="middle" dominant-baseline="middle" font-family="Arial, PingFang SC, sans-serif" font-size="13" font-weight="700" fill="#8C7E16" stroke="#FFFDF8" stroke-width="1" paint-order="stroke">5</text><text x="167.0" y="452.0" text-anchor="middle" dominant-baseline="middle" font-family="Arial, PingFang SC, sans-serif" font-size="13" font-weight="700" fill="#8C7E16" stroke="#FFFDF8" stroke-width="1" paint-order="stroke">6</text><text x="227.0" y="452.0" text-anchor="middle" dominant-baseline="middle" font-family="Arial, PingFang SC, sans-serif" font-size="13" font-weight="700" fill="#8C7E16" stroke="#FFFDF8" stroke-width="1" paint-order="stroke">7</text><text x="227.0" y="752.0" text-anchor="middle" dominant-baseline="middle" font-family="Arial, PingFang SC, sans-serif" font-size="13" font-weight="700" fill="#287B5D" stroke="#FFFDF8" stroke-width="1" paint-order="stroke">0</text><text x="287.0" y="752.0" text-anchor="middle" dominant-baseline="middle" font-family="Arial, PingFang SC, sans-serif" font-size="13" font-weight="700" fill="#287B5D" stroke="#FFFDF8" stroke-width="1" paint-order="stroke">1</text><text x="227.0" y="692.0" text-anchor="middle" dominant-baseline="middle" font-family="Arial, PingFang SC, sans-serif" font-size="13" font-weight="700" fill="#287B5D" stroke="#FFFDF8" stroke-width="1" paint-order="stroke">2</text><text x="287.0" y="692.0" text-anchor="middle" dominant-baseline="middle" font-family="Arial, PingFang SC, sans-serif" font-size="13" font-weight="700" fill="#287B5D" stroke="#FFFDF8" stroke-width="1" paint-order="stroke">3</text><g aria-label="Atom movement animation"><text x="32" y="36" font-family="Arial, PingFang SC, sans-serif" font-size="20" font-weight="700" fill="#52645b">move_stage 2.9</text><path d="M 107 452 L 437 662" fill="none" stroke="#8C7E16" stroke-width="2" stroke-dasharray="7 6" opacity=".72"/><circle cx="107" cy="452" r="17" fill="white" stroke="#232A27" stroke-width="3" stroke-dasharray="5 4" opacity="0"><animate attributeName="opacity" values="0;0;1;1" keyTimes="0;0.18;0.22;1" dur="2s" repeatCount="indefinite"/></circle><circle cx="437" cy="662" r="34" fill="#F7EFC8" opacity="0"><animate attributeName="opacity" values="0;0;0;1;1" keyTimes="0;0.70;0.78;0.82;1" dur="2s" repeatCount="indefinite"/></circle><g opacity="0"><circle cx="437" cy="662" r="14" fill="#FFFDF8" stroke="#8C7E16" stroke-width="3"/><text x="437" y="662" text-anchor="middle" dominant-baseline="middle" font-family="Arial, PingFang SC, sans-serif" font-size="13" font-weight="700" fill="#8C7E16">5</text><animate attributeName="opacity" values="0;0;1;1" keyTimes="0;0.78;0.82;1" dur="2s" repeatCount="indefinite"/></g><g><circle cx="107" cy="452" r="16" fill="#FFFDF8" stroke="#8C7E16" stroke-width="4"/><text x="107" y="452" text-anchor="middle" dominant-baseline="middle" font-family="Arial, PingFang SC, sans-serif" font-size="13" font-weight="700" fill="#8C7E16">5</text><animateMotion path="M 0 0 L 330 210" dur="2s" repeatCount="indefinite"/></g><path d="M 167 452 L 467 662" fill="none" stroke="#8C7E16" stroke-width="2" stroke-dasharray="7 6" opacity=".72"/><circle cx="167" cy="452" r="17" fill="white" stroke="#232A27" stroke-width="3" stroke-dasharray="5 4" opacity="0"><animate attributeName="opacity" values="0;0;1;1" keyTimes="0;0.18;0.22;1" dur="2s" repeatCount="indefinite"/></circle><circle cx="467" cy="662" r="34" fill="#F7EFC8" opacity="0"><animate attributeName="opacity" values="0;0;0;1;1" keyTimes="0;0.70;0.78;0.82;1" dur="2s" repeatCount="indefinite"/></circle><g opacity="0"><circle cx="467" cy="662" r="14" fill="#FFFDF8" stroke="#8C7E16" stroke-width="3"/><text x="467" y="662" text-anchor="middle" dominant-baseline="middle" font-family="Arial, PingFang SC, sans-serif" font-size="13" font-weight="700" fill="#8C7E16">6</text><animate attributeName="opacity" values="0;0;1;1" keyTimes="0;0.78;0.82;1" dur="2s" repeatCount="indefinite"/></g><g><circle cx="167" cy="452" r="16" fill="#FFFDF8" stroke="#8C7E16" stroke-width="4"/><text x="167" y="452" text-anchor="middle" dominant-baseline="middle" font-family="Arial, PingFang SC, sans-serif" font-size="13" font-weight="700" fill="#8C7E16">6</text><animateMotion path="M 0 0 L 300 210" dur="2s" repeatCount="indefinite"/></g></g></svg>