<svg xmlns="http://www.w3.org/2000/svg" width="2284" height="1834" viewBox="0 0 2284 1834" role="img" aria-label="MultiQ execution stage 10"><defs><filter id="blur"><feGaussianBlur stdDeviation="8"/></filter></defs><rect width="2284" height="1834" fill="white"/><rect x="707" y="272" width="870" height="150" fill="white" stroke="#A785C1" stroke-width="3"/><text x="707.0" y="263.0" text-anchor="start" dominant-baseline="middle" font-family="Arial, PingFang SC, sans-serif" font-size="19" font-weight="700" fill="#A785C1">RZ0</text><rect x="707" y="1187" width="870" height="150" fill="white" stroke="#A785C1" stroke-width="3"/><text x="707.0" y="1178.0" text-anchor="start" dominant-baseline="middle" font-family="Arial, PingFang SC, sans-serif" font-size="19" font-weight="700" fill="#A785C1">RZ1</text><rect x="212" y="617" width="270" height="450" fill="white" stroke="#70B694" stroke-width="3"/><text x="212.0" y="608.0" text-anchor="start" dominant-baseline="middle" font-family="Arial, PingFang SC, sans-serif" font-size="19" font-weight="700" fill="#70B694">SZ0</text><rect x="1802" y="617" width="270" height="450" fill="white" stroke="#70B694" stroke-width="3"/><text x="1802.0" y="608.0" text-anchor="start" dominant-baseline="middle" font-family="Arial, PingFang SC, sans-serif" font-size="19" font-weight="700" fill="#70B694">SZ1</text><rect x="512" y="482" width="1260" height="630" fill="white" stroke="#709DCC" stroke-width="3"/><text x="512.0" y="473.0" text-anchor="start" dominant-baseline="middle" font-family="Arial, PingFang SC, sans-serif" font-size="19" font-weight="700" fill="#709DCC">EZ</text><line x1="1907" y1="962" x2="1967" y2="962" stroke="#DCECF7" stroke-width="68" stroke-linecap="round"/><line x1="1907" y1="962" x2="1907" y2="902" stroke="#DCECF7" stroke-width="68" stroke-linecap="round"/><line x1="1967" y1="962" x2="1967" y2="902" stroke="#DCECF7" stroke-width="68" stroke-linecap="round"/><line x1="1907" y1="902" x2="1847" y2="902" stroke="#DCECF7" stroke-width="68" stroke-linecap="round"/><line x1="1847" y1="902" x2="1847" y2="842" stroke="#DCECF7" stroke-width="68" stroke-linecap="round"/><line x1="1907" y1="902" x2="1907" y2="842" stroke="#DCECF7" stroke-width="68" stroke-linecap="round"/><line x1="1967" y1="902" x2="2027" y2="902" stroke="#DCECF7" stroke-width="68" stroke-linecap="round"/><line x1="1967" y1="902" x2="1967" y2="842" stroke="#DCECF7" stroke-width="68" stroke-linecap="round"/><line x1="2027" y1="902" x2="2027" y2="842" stroke="#DCECF7" stroke-width="68" stroke-linecap="round"/><line x1="1847" y1="842" x2="1847" y2="782" stroke="#DCECF7" stroke-width="68" stroke-linecap="round"/><line x1="1907" y1="842" x2="1907" y2="782" stroke="#DCECF7" stroke-width="68" stroke-linecap="round"/><line x1="1967" y1="842" x2="1967" y2="782" stroke="#DCECF7" stroke-width="68" stroke-linecap="round"/><line x1="2027" y1="842" x2="2027" y2="782" stroke="#DCECF7" stroke-width="68" stroke-linecap="round"/><line x1="1907" y1="782" x2="1907" y2="722" stroke="#DCECF7" stroke-width="68" stroke-linecap="round"/><line x1="1967" y1="782" x2="1967" y2="722" stroke="#DCECF7" stroke-width="68" stroke-linecap="round"/><rect x="1873" y="928" width="68" height="68" rx="15" fill="#DCECF7"/><rect x="1933" y="928" width="68" height="68" rx="15" fill="#DCECF7"/><rect x="1813" y="868" width="68" height="68" rx="15" fill="#DCECF7"/><rect x="1873" y="868" width="68" height="68" rx="15" fill="#DCECF7"/><rect x="1933" y="868" width="68" height="68" rx="15" fill="#DCECF7"/><rect x="1993" y="868" width="68" height="68" rx="15" fill="#DCECF7"/><rect x="1813" y="808" width="68" height="68" rx="15" fill="#DCECF7"/><rect x="1873" y="808" width="68" height="68" rx="15" fill="#DCECF7"/><rect x="1933" y="808" width="68" height="68" rx="15" fill="#DCECF7"/><rect x="1993" y="808" width="68" height="68" rx="15" fill="#DCECF7"/><rect x="1813" y="748" width="68" height="68" rx="15" fill="#DCECF7"/><rect x="1873" y="748" width="68" height="68" rx="15" fill="#DCECF7"/><rect x="1933" y="748" width="68" height="68" rx="15" fill="#DCECF7"/><rect x="1993" y="748" width="68" height="68" rx="15" fill="#DCECF7"/><rect x="1873" y="688" width="68" height="68" rx="15" fill="#DCECF7"/><rect x="1933" y="688" width="68" height="68" rx="15" fill="#DCECF7"/><rect x="1068" y="648" width="688" height="298" rx="16" fill="#DCECF7"/><line x1="1112" y1="1292" x2="1172" y2="1292" stroke="#DCECF7" stroke-width="68" stroke-linecap="round"/><line x1="1112" y1="1292" x2="1112" y2="1232" stroke="#DCECF7" stroke-width="68" stroke-linecap="round"/><line x1="1172" y1="1292" x2="1232" y2="1292" stroke="#DCECF7" stroke-width="68" stroke-linecap="round"/><line x1="1172" y1="1292" x2="1172" y2="1232" stroke="#DCECF7" stroke-width="68" stroke-linecap="round"/><line x1="1232" y1="1292" x2="1292" y2="1292" stroke="#DCECF7" stroke-width="68" stroke-linecap="round"/><line x1="1232" y1="1292" x2="1232" y2="1232" stroke="#DCECF7" stroke-width="68" stroke-linecap="round"/><line x1="1292" y1="1292" x2="1352" y2="1292" stroke="#DCECF7" stroke-width="68" stroke-linecap="round"/><line x1="1292" y1="1292" x2="1292" y2="1232" stroke="#DCECF7" stroke-width="68" stroke-linecap="round"/><line x1="1352" y1="1292" x2="1412" y2="1292" stroke="#DCECF7" stroke-width="68" stroke-linecap="round"/><line x1="1352" y1="1292" x2="1352" y2="1232" stroke="#DCECF7" stroke-width="68" stroke-linecap="round"/><line x1="1412" y1="1292" x2="1472" y2="1292" stroke="#DCECF7" stroke-width="68" stroke-linecap="round"/><line x1="1412" y1="1292" x2="1412" y2="1232" stroke="#DCECF7" stroke-width="68" stroke-linecap="round"/><line x1="1472" y1="1292" x2="1532" y2="1292" stroke="#DCECF7" stroke-width="68" stroke-linecap="round"/><line x1="1472" y1="1292" x2="1472" y2="1232" stroke="#DCECF7" stroke-width="68" stroke-linecap="round"/><line x1="1532" y1="1292" x2="1532" y2="1232" stroke="#DCECF7" stroke-width="68" stroke-linecap="round"/><rect x="1078" y="1258" width="68" height="68" rx="15" fill="#DCECF7"/><rect x="1138" y="1258" width="68" height="68" rx="15" fill="#DCECF7"/><rect x="1198" y="1258" width="68" height="68" rx="15" fill="#DCECF7"/><rect x="1258" y="1258" width="68" height="68" rx="15" fill="#DCECF7"/><rect x="1318" y="1258" width="68" height="68" rx="15" fill="#DCECF7"/><rect x="1378" y="1258" width="68" height="68" rx="15" fill="#DCECF7"/><rect x="1438" y="1258" width="68" height="68" rx="15" fill="#DCECF7"/><rect x="1498" y="1258" width="68" height="68" rx="15" fill="#DCECF7"/><rect x="1078" y="1198" width="68" height="68" rx="15" fill="#DCECF7"/><rect x="1138" y="1198" width="68" height="68" rx="15" fill="#DCECF7"/><rect x="1198" y="1198" width="68" height="68" rx="15" fill="#DCECF7"/><rect x="1258" y="1198" width="68" height="68" rx="15" fill="#DCECF7"/><rect x="1318" y="1198" width="68" height="68" rx="15" fill="#DCECF7"/><rect x="1378" y="1198" width="68" height="68" rx="15" fill="#DCECF7"/><rect x="1438" y="1198" width="68" height="68" rx="15" fill="#DCECF7"/><rect x="1498" y="1198" width="68" height="68" rx="15" fill="#DCECF7"/><line x1="317" y1="782" x2="377" y2="782" stroke="#F7EFC8" stroke-width="68" stroke-linecap="round"/><line x1="317" y1="782" x2="317" y2="722" stroke="#F7EFC8" stroke-width="68" stroke-linecap="round"/><line x1="377" y1="782" x2="377" y2="722" stroke="#F7EFC8" stroke-width="68" stroke-linecap="round"/><line x1="317" y1="722" x2="257" y2="722" stroke="#F7EFC8" stroke-width="68" stroke-linecap="round"/><line x1="257" y1="722" x2="257" y2="662" stroke="#F7EFC8" stroke-width="68" stroke-linecap="round"/><line x1="317" y1="722" x2="317" y2="662" stroke="#F7EFC8" stroke-width="68" stroke-linecap="round"/><line x1="377" y1="722" x2="377" y2="662" stroke="#F7EFC8" stroke-width="68" stroke-linecap="round"/><rect x="283" y="748" width="68" height="68" rx="15" fill="#F7EFC8"/><rect x="343" y="748" width="68" height="68" rx="15" fill="#F7EFC8"/><rect x="223" y="688" width="68" height="68" rx="15" fill="#F7EFC8"/><rect x="283" y="688" width="68" height="68" rx="15" fill="#F7EFC8"/><rect x="343" y="688" width="68" height="68" rx="15" fill="#F7EFC8"/><rect x="223" y="628" width="68" height="68" rx="15" fill="#F7EFC8"/><rect x="283" y="628" width="68" height="68" rx="15" fill="#F7EFC8"/><rect x="343" y="628" width="68" height="68" rx="15" fill="#F7EFC8"/><rect x="528" y="798" width="328" height="298" rx="16" fill="#F7EFC8"/><line x1="1052" y1="377" x2="1112" y2="377" stroke="#F7EFC8" stroke-width="68" stroke-linecap="round"/><line x1="1052" y1="377" x2="1052" y2="317" stroke="#F7EFC8" stroke-width="68" stroke-linecap="round"/><line x1="1112" y1="377" x2="1172" y2="377" stroke="#F7EFC8" stroke-width="68" stroke-linecap="round"/><line x1="1112" y1="377" x2="1112" y2="317" stroke="#F7EFC8" stroke-width="68" stroke-linecap="round"/><line x1="1172" y1="377" x2="1232" y2="377" stroke="#F7EFC8" stroke-width="68" stroke-linecap="round"/><line x1="1172" y1="377" x2="1172" y2="317" stroke="#F7EFC8" stroke-width="68" stroke-linecap="round"/><line x1="1232" y1="377" x2="1232" y2="317" stroke="#F7EFC8" stroke-width="68" stroke-linecap="round"/><rect x="1018" y="343" width="68" height="68" rx="15" fill="#F7EFC8"/><rect x="1078" y="343" width="68" height="68" rx="15" fill="#F7EFC8"/><rect x="1138" y="343" width="68" height="68" rx="15" fill="#F7EFC8"/><rect x="1198" y="343" width="68" height="68" rx="15" fill="#F7EFC8"/><rect x="1018" y="283" width="68" height="68" rx="15" fill="#F7EFC8"/><rect x="1078" y="283" width="68" height="68" rx="15" fill="#F7EFC8"/><rect x="1138" y="283" width="68" height="68" rx="15" fill="#F7EFC8"/><rect x="1198" y="283" width="68" height="68" rx="15" fill="#F7EFC8"/><line x1="377" y1="962" x2="437" y2="962" stroke="#DDF2E7" stroke-width="68" stroke-linecap="round"/><line x1="377" y1="962" x2="377" y2="902" stroke="#DDF2E7" stroke-width="68" stroke-linecap="round"/><line x1="437" y1="962" x2="437" y2="902" stroke="#DDF2E7" stroke-width="68" stroke-linecap="round"/><rect x="343" y="928" width="68" height="68" rx="15" fill="#DDF2E7"/><rect x="403" y="928" width="68" height="68" rx="15" fill="#DDF2E7"/><rect x="343" y="868" width="68" height="68" rx="15" fill="#DDF2E7"/><rect x="403" y="868" width="68" height="68" rx="15" fill="#DDF2E7"/><rect x="528" y="498" width="148" height="298" rx="16" fill="#DDF2E7"/><line x1="812" y1="377" x2="872" y2="377" stroke="#DDF2E7" stroke-width="68" stroke-linecap="round"/><line x1="812" y1="377" x2="812" y2="317" stroke="#DDF2E7" stroke-width="68" stroke-linecap="round"/><line x1="872" y1="377" x2="872" y2="317" stroke="#DDF2E7" stroke-width="68" stroke-linecap="round"/><rect x="778" y="343" width="68" height="68" rx="15" fill="#DDF2E7"/><rect x="838" y="343" width="68" height="68" rx="15" fill="#DDF2E7"/><rect x="778" y="283" width="68" height="68" rx="15" fill="#DDF2E7"/><rect x="838" y="283" width="68" height="68" rx="15" fill="#DDF2E7"/><circle cx="1907" cy="962" r="21" fill="#FF27E6" opacity=".32" filter="url(#blur)"/><circle cx="1907" cy="962" r="18" fill="#FF27E6" opacity=".48"/><circle cx="1967" cy="962" r="21" fill="#FF27E6" opacity=".32" filter="url(#blur)"/><circle cx="1967" cy="962" r="18" fill="#FF27E6" opacity=".48"/><circle cx="1847" cy="902" r="21" fill="#FF27E6" opacity=".32" filter="url(#blur)"/><circle cx="1847" cy="902" r="18" fill="#FF27E6" opacity=".48"/><circle cx="1907" cy="902" r="21" fill="#FF27E6" opacity=".32" filter="url(#blur)"/><circle cx="1907" cy="902" r="18" fill="#FF27E6" opacity=".48"/><circle cx="1967" cy="902" r="21" fill="#FF27E6" opacity=".32" filter="url(#blur)"/><circle cx="1967" cy="902" r="18" fill="#FF27E6" opacity=".48"/><circle cx="2027" cy="902" r="21" fill="#FF27E6" opacity=".32" filter="url(#blur)"/><circle cx="2027" cy="902" r="18" fill="#FF27E6" opacity=".48"/><circle cx="1847" cy="842" r="21" fill="#FF27E6" opacity=".32" filter="url(#blur)"/><circle cx="1847" cy="842" r="18" fill="#FF27E6" opacity=".48"/><circle cx="1907" cy="842" r="21" fill="#FF27E6" opacity=".32" filter="url(#blur)"/><circle cx="1907" cy="842" r="18" fill="#FF27E6" opacity=".48"/><circle cx="1967" cy="842" r="21" fill="#FF27E6" opacity=".32" filter="url(#blur)"/><circle cx="1967" cy="842" r="18" fill="#FF27E6" opacity=".48"/><circle cx="2027" cy="842" r="21" fill="#FF27E6" opacity=".32" filter="url(#blur)"/><circle cx="2027" cy="842" r="18" fill="#FF27E6" opacity=".48"/><circle cx="1847" cy="782" r="21" fill="#FF27E6" opacity=".32" filter="url(#blur)"/><circle cx="1847" cy="782" r="18" fill="#FF27E6" opacity=".48"/><circle cx="1907" cy="782" r="21" fill="#FF27E6" opacity=".32" filter="url(#blur)"/><circle cx="1907" cy="782" r="18" fill="#FF27E6" opacity=".48"/><circle cx="1967" cy="782" r="21" fill="#FF27E6" opacity=".32" filter="url(#blur)"/><circle cx="1967" cy="782" r="18" fill="#FF27E6" opacity=".48"/><circle cx="2027" cy="782" r="21" fill="#FF27E6" opacity=".32" filter="url(#blur)"/><circle cx="2027" cy="782" r="18" fill="#FF27E6" opacity=".48"/><circle cx="1907" cy="722" r="21" fill="#FF27E6" opacity=".32" filter="url(#blur)"/><circle cx="1907" cy="722" r="18" fill="#FF27E6" opacity=".48"/><circle cx="1967" cy="722" r="21" fill="#FF27E6" opacity=".32" filter="url(#blur)"/><circle cx="1967" cy="722" r="18" fill="#FF27E6" opacity=".48"/><circle cx="317" cy="782" r="21" fill="#FF27E6" opacity=".32" filter="url(#blur)"/><circle cx="317" cy="782" r="18" fill="#FF27E6" opacity=".48"/><circle cx="377" cy="782" r="21" fill="#FF27E6" opacity=".32" filter="url(#blur)"/><circle cx="377" cy="782" r="18" fill="#FF27E6" opacity=".48"/><circle cx="257" cy="722" r="21" fill="#FF27E6" opacity=".32" filter="url(#blur)"/><circle cx="257" cy="722" r="18" fill="#FF27E6" opacity=".48"/><circle cx="317" cy="722" r="21" fill="#FF27E6" opacity=".32" filter="url(#blur)"/><circle cx="317" cy="722" r="18" fill="#FF27E6" opacity=".48"/><circle cx="377" cy="722" r="21" fill="#FF27E6" opacity=".32" filter="url(#blur)"/><circle cx="377" cy="722" r="18" fill="#FF27E6" opacity=".48"/><circle cx="257" cy="662" r="21" fill="#FF27E6" opacity=".32" filter="url(#blur)"/><circle cx="257" cy="662" r="18" fill="#FF27E6" opacity=".48"/><circle cx="317" cy="662" r="21" fill="#FF27E6" opacity=".32" filter="url(#blur)"/><circle cx="317" cy="662" r="18" fill="#FF27E6" opacity=".48"/><circle cx="377" cy="662" r="21" fill="#FF27E6" opacity=".32" filter="url(#blur)"/><circle cx="377" cy="662" r="18" fill="#FF27E6" opacity=".48"/><circle cx="812" cy="377" r="21" fill="#C72BFF" opacity=".32" filter="url(#blur)"/><circle cx="812" cy="377" r="18" fill="#C72BFF" opacity=".48"/><circle cx="872" cy="377" r="21" fill="#C72BFF" opacity=".32" filter="url(#blur)"/><circle cx="872" cy="377" r="18" fill="#C72BFF" opacity=".48"/><circle cx="812" cy="317" r="21" fill="#C72BFF" opacity=".32" filter="url(#blur)"/><circle cx="812" cy="317" r="18" fill="#C72BFF" opacity=".48"/><circle cx="872" cy="317" r="21" fill="#C72BFF" opacity=".32" filter="url(#blur)"/><circle cx="872" cy="317" r="18" fill="#C72BFF" opacity=".48"/><circle cx="752" cy="377" r="14" fill="#FFFDF8" stroke="#23496e" stroke-width="3"/><circle cx="812" cy="377" r="14" fill="#FFFDF8" stroke="#23496e" stroke-width="3"/><circle cx="872" cy="377" r="14" fill="#FFFDF8" stroke="#23496e" stroke-width="3"/><circle cx="932" cy="377" r="14" fill="#FFFDF8" stroke="#23496e" stroke-width="3"/><circle cx="992" cy="377" r="14" fill="#FFFDF8" stroke="#23496e" stroke-width="3"/><circle cx="1052" cy="377" r="14" fill="#FFFDF8" stroke="#23496e" stroke-width="3"/><circle cx="1112" cy="377" r="14" fill="#FFFDF8" stroke="#23496e" stroke-width="3"/><circle cx="1172" cy="377" r="14" fill="#FFFDF8" stroke="#23496e" stroke-width="3"/><circle cx="1232" cy="377" r="14" fill="#FFFDF8" stroke="#23496e" stroke-width="3"/><circle cx="1292" cy="377" r="14" fill="#FFFDF8" stroke="#23496e" stroke-width="3"/><circle cx="1352" cy="377" r="14" fill="#FFFDF8" stroke="#23496e" stroke-width="3"/><circle cx="1412" cy="377" r="14" fill="#FFFDF8" stroke="#23496e" stroke-width="3"/><circle cx="1472" cy="377" r="14" fill="#FFFDF8" stroke="#23496e" stroke-width="3"/><circle cx="1532" cy="377" r="14" fill="#FFFDF8" stroke="#23496e" stroke-width="3"/><circle cx="752" cy="317" r="14" fill="#FFFDF8" stroke="#23496e" stroke-width="3"/><circle cx="812" cy="317" r="14" fill="#FFFDF8" stroke="#23496e" stroke-width="3"/><circle cx="872" cy="317" r="14" fill="#FFFDF8" stroke="#23496e" stroke-width="3"/><circle cx="932" cy="317" r="14" fill="#FFFDF8" stroke="#23496e" stroke-width="3"/><circle cx="992" cy="317" r="14" fill="#FFFDF8" stroke="#23496e" stroke-width="3"/><circle cx="1052" cy="317" r="14" fill="#FFFDF8" stroke="#23496e" stroke-width="3"/><circle cx="1112" cy="317" r="14" fill="#FFFDF8" stroke="#23496e" stroke-width="3"/><circle cx="1172" cy="317" r="14" fill="#FFFDF8" stroke="#23496e" stroke-width="3"/><circle cx="1232" cy="317" r="14" fill="#FFFDF8" stroke="#23496e" stroke-width="3"/><circle cx="1292" cy="317" r="14" fill="#FFFDF8" stroke="#23496e" stroke-width="3"/><circle cx="1352" cy="317" r="14" fill="#FFFDF8" stroke="#23496e" stroke-width="3"/><circle cx="1412" cy="317" r="14" fill="#FFFDF8" stroke="#23496e" stroke-width="3"/><circle cx="1472" cy="317" r="14" fill="#FFFDF8" stroke="#23496e" stroke-width="3"/><circle cx="1532" cy="317" r="14" fill="#FFFDF8" stroke="#23496e" stroke-width="3"/><circle cx="752" cy="1292" r="14" fill="#FFFDF8" stroke="#23496e" stroke-width="3"/><circle cx="812" cy="1292" r="14" fill="#FFFDF8" stroke="#23496e" stroke-width="3"/><circle cx="872" cy="1292" r="14" fill="#FFFDF8" stroke="#23496e" stroke-width="3"/><circle cx="932" cy="1292" r="14" fill="#FFFDF8" stroke="#23496e" stroke-width="3"/><circle cx="992" cy="1292" r="14" fill="#FFFDF8" stroke="#23496e" stroke-width="3"/><circle cx="1052" cy="1292" r="14" fill="#FFFDF8" stroke="#23496e" stroke-width="3"/><circle cx="1112" cy="1292" r="14" fill="#FFFDF8" stroke="#23496e" stroke-width="3"/><circle cx="1172" cy="1292" r="14" fill="#FFFDF8" stroke="#23496e" stroke-width="3"/><circle cx="1232" cy="1292" r="14" fill="#FFFDF8" stroke="#23496e" stroke-width="3"/><circle cx="1292" cy="1292" r="14" fill="#FFFDF8" stroke="#23496e" stroke-width="3"/><circle cx="1352" cy="1292" r="14" fill="#FFFDF8" stroke="#23496e" stroke-width="3"/><circle cx="1412" cy="1292" r="14" fill="#FFFDF8" stroke="#23496e" stroke-width="3"/><circle cx="1472" cy="1292" r="14" fill="#FFFDF8" stroke="#23496e" stroke-width="3"/><circle cx="1532" cy="1292" r="14" fill="#FFFDF8" stroke="#23496e" stroke-width="3"/><circle cx="752" cy="1232" r="14" fill="#FFFDF8" stroke="#23496e" stroke-width="3"/><circle cx="812" cy="1232" r="14" fill="#FFFDF8" stroke="#23496e" stroke-width="3"/><circle cx="872" cy="1232" r="14" fill="#FFFDF8" stroke="#23496e" stroke-width="3"/><circle cx="932" cy="1232" r="14" fill="#FFFDF8" stroke="#23496e" stroke-width="3"/><circle cx="992" cy="1232" r="14" fill="#FFFDF8" stroke="#23496e" stroke-width="3"/><circle cx="1052" cy="1232" r="14" fill="#FFFDF8" stroke="#23496e" stroke-width="3"/><circle cx="1112" cy="1232" r="14" fill="#FFFDF8" stroke="#23496e" stroke-width="3"/><circle cx="1172" cy="1232" r="14" fill="#FFFDF8" stroke="#23496e" stroke-width="3"/><circle cx="1232" cy="1232" r="14" fill="#FFFDF8" stroke="#23496e" stroke-width="3"/><circle cx="1292" cy="1232" r="14" fill="#FFFDF8" stroke="#23496e" stroke-width="3"/><circle cx="1352" cy="1232" r="14" fill="#FFFDF8" stroke="#23496e" stroke-width="3"/><circle cx="1412" cy="1232" r="14" fill="#FFFDF8" stroke="#23496e" stroke-width="3"/><circle cx="1472" cy="1232" r="14" fill="#FFFDF8" stroke="#23496e" stroke-width="3"/><circle cx="1532" cy="1232" r="14" fill="#FFFDF8" stroke="#23496e" stroke-width="3"/><circle cx="257" cy="1022" r="14" fill="#FFFDF8" stroke="#23496e" stroke-width="3"/><circle cx="317" cy="1022" r="14" fill="#FFFDF8" stroke="#23496e" stroke-width="3"/><circle cx="377" cy="1022" r="14" fill="#FFFDF8" stroke="#23496e" stroke-width="3"/><circle cx="437" cy="1022" r="14" fill="#FFFDF8" stroke="#23496e" stroke-width="3"/><circle cx="257" cy="962" r="14" fill="#FFFDF8" stroke="#23496e" stroke-width="3"/><circle cx="317" cy="962" r="14" fill="#FFFDF8" stroke="#23496e" stroke-width="3"/><circle cx="377" cy="962" r="14" fill="#FFFDF8" stroke="#23496e" stroke-width="3"/><circle cx="437" cy="962" r="14" fill="#FFFDF8" stroke="#23496e" stroke-width="3"/><circle cx="257" cy="902" r="14" fill="#FFFDF8" stroke="#23496e" stroke-width="3"/><circle cx="317" cy="902" r="14" fill="#FFFDF8" stroke="#23496e" stroke-width="3"/><circle cx="377" cy="902" r="14" fill="#FFFDF8" stroke="#23496e" stroke-width="3"/><circle cx="437" cy="902" r="14" fill="#FFFDF8" stroke="#23496e" stroke-width="3"/><circle cx="257" cy="842" r="14" fill="#FFFDF8" stroke="#23496e" stroke-width="3"/><circle cx="317" cy="842" r="14" fill="#FFFDF8" stroke="#23496e" stroke-width="3"/><circle cx="377" cy="842" r="14" fill="#FFFDF8" stroke="#23496e" stroke-width="3"/><circle cx="437" cy="842" r="14" fill="#FFFDF8" stroke="#23496e" stroke-width="3"/><circle cx="257" cy="782" r="14" fill="#FFFDF8" stroke="#23496e" stroke-width="3"/><circle cx="317" cy="782" r="14" fill="#FFFDF8" stroke="#23496e" stroke-width="3"/><circle cx="377" cy="782" r="14" fill="#FFFDF8" stroke="#23496e" stroke-width="3"/><circle cx="437" cy="782" r="14" fill="#FFFDF8" stroke="#23496e" stroke-width="3"/><circle cx="257" cy="722" r="14" fill="#FFFDF8" stroke="#23496e" stroke-width="3"/><circle cx="317" cy="722" r="14" fill="#FFFDF8" stroke="#23496e" stroke-width="3"/><circle cx="377" cy="722" r="14" fill="#FFFDF8" stroke="#23496e" stroke-width="3"/><circle cx="437" cy="722" r="14" fill="#FFFDF8" stroke="#23496e" stroke-width="3"/><circle cx="257" cy="662" r="14" fill="#FFFDF8" stroke="#23496e" stroke-width="3"/><circle cx="317" cy="662" r="14" fill="#FFFDF8" stroke="#23496e" stroke-width="3"/><circle cx="377" cy="662" r="14" fill="#FFFDF8" stroke="#23496e" stroke-width="3"/><circle cx="437" cy="662" r="14" fill="#FFFDF8" stroke="#23496e" stroke-width="3"/><circle cx="1847" cy="1022" r="14" fill="#FFFDF8" stroke="#23496e" stroke-width="3"/><circle cx="1907" cy="1022" r="14" fill="#FFFDF8" stroke="#23496e" stroke-width="3"/><circle cx="1967" cy="1022" r="14" fill="#FFFDF8" stroke="#23496e" stroke-width="3"/><circle cx="2027" cy="1022" r="14" fill="#FFFDF8" stroke="#23496e" stroke-width="3"/><circle cx="1847" cy="962" r="14" fill="#FFFDF8" stroke="#23496e" stroke-width="3"/><circle cx="1907" cy="962" r="14" fill="#FFFDF8" stroke="#23496e" stroke-width="3"/><circle cx="1967" cy="962" r="14" fill="#FFFDF8" stroke="#23496e" stroke-width="3"/><circle cx="2027" cy="962" r="14" fill="#FFFDF8" stroke="#23496e" stroke-width="3"/><circle cx="1847" cy="902" r="14" fill="#FFFDF8" stroke="#23496e" stroke-width="3"/><circle cx="1907" cy="902" r="14" fill="#FFFDF8" stroke="#23496e" stroke-width="3"/><circle cx="1967" cy="902" r="14" fill="#FFFDF8" stroke="#23496e" stroke-width="3"/><circle cx="2027" cy="902" r="14" fill="#FFFDF8" stroke="#23496e" stroke-width="3"/><circle cx="1847" cy="842" r="14" fill="#FFFDF8" stroke="#23496e" stroke-width="3"/><circle cx="1907" cy="842" r="14" fill="#FFFDF8" stroke="#23496e" stroke-width="3"/><circle cx="1967" cy="842" r="14" fill="#FFFDF8" stroke="#23496e" stroke-width="3"/><circle cx="2027" cy="842" r="14" fill="#FFFDF8" stroke="#23496e" stroke-width="3"/><circle cx="1847" cy="782" r="14" fill="#FFFDF8" stroke="#23496e" stroke-width="3"/><circle cx="1907" cy="782" r="14" fill="#FFFDF8" stroke="#23496e" stroke-width="3"/><circle cx="1967" cy="782" r="14" fill="#FFFDF8" stroke="#23496e" stroke-width="3"/><circle cx="2027" cy="782" r="14" fill="#FFFDF8" stroke="#23496e" stroke-width="3"/><circle cx="1847" cy="722" r="14" fill="#FFFDF8" stroke="#23496e" stroke-width="3"/><circle cx="1907" cy="722" r="14" fill="#FFFDF8" stroke="#23496e" stroke-width="3"/><circle cx="1967" cy="722" r="14" fill="#FFFDF8" stroke="#23496e" stroke-width="3"/><circle cx="2027" cy="722" r="14" fill="#FFFDF8" stroke="#23496e" stroke-width="3"/><circle cx="1847" cy="662" r="14" fill="#FFFDF8" stroke="#23496e" stroke-width="3"/><circle cx="1907" cy="662" r="14" fill="#FFFDF8" stroke="#23496e" stroke-width="3"/><circle cx="1967" cy="662" r="14" fill="#FFFDF8" stroke="#23496e" stroke-width="3"/><circle cx="2027" cy="662" r="14" fill="#FFFDF8" stroke="#23496e" stroke-width="3"/><circle cx="587" cy="1022" r="14" fill="#FFFDF8" stroke="#23496e" stroke-width="3"/><circle cx="617" cy="1022" r="14" fill="#FFFDF8" stroke="#23496e" stroke-width="3"/><circle cx="767" cy="1022" r="14" fill="#FFFDF8" stroke="#23496e" stroke-width="3"/><circle cx="797" cy="1022" r="14" fill="#FFFDF8" stroke="#23496e" stroke-width="3"/><circle cx="947" cy="1022" r="14" fill="#FFFDF8" stroke="#23496e" stroke-width="3"/><circle cx="977" cy="1022" r="14" fill="#FFFDF8" stroke="#23496e" stroke-width="3"/><circle cx="1127" cy="1022" r="14" fill="#FFFDF8" stroke="#23496e" stroke-width="3"/><circle cx="1157" cy="1022" r="14" fill="#FFFDF8" stroke="#23496e" stroke-width="3"/><circle cx="1307" cy="1022" r="14" fill="#FFFDF8" stroke="#23496e" stroke-width="3"/><circle cx="1337" cy="1022" r="14" fill="#FFFDF8" stroke="#23496e" stroke-width="3"/><circle cx="1487" cy="1022" r="14" fill="#FFFDF8" stroke="#23496e" stroke-width="3"/><circle cx="1517" cy="1022" r="14" fill="#FFFDF8" stroke="#23496e" stroke-width="3"/><circle cx="1667" cy="1022" r="14" fill="#FFFDF8" stroke="#23496e" stroke-width="3"/><circle cx="1697" cy="1022" r="14" fill="#FFFDF8" stroke="#23496e" stroke-width="3"/><circle cx="587" cy="872" r="14" fill="#FFFDF8" stroke="#23496e" stroke-width="3"/><circle cx="617" cy="872" r="14" fill="#FFFDF8" stroke="#23496e" stroke-width="3"/><circle cx="767" cy="872" r="14" fill="#FFFDF8" stroke="#23496e" stroke-width="3"/><circle cx="797" cy="872" r="14" fill="#FFFDF8" stroke="#23496e" stroke-width="3"/><circle cx="947" cy="872" r="14" fill="#FFFDF8" stroke="#23496e" stroke-width="3"/><circle cx="977" cy="872" r="14" fill="#FFFDF8" stroke="#23496e" stroke-width="3"/><circle cx="1127" cy="872" r="14" fill="#FFFDF8" stroke="#23496e" stroke-width="3"/><circle cx="1157" cy="872" r="14" fill="#FFFDF8" stroke="#23496e" stroke-width="3"/><circle cx="1307" cy="872" r="14" fill="#FFFDF8" stroke="#23496e" stroke-width="3"/><circle cx="1337" cy="872" r="14" fill="#FFFDF8" stroke="#23496e" stroke-width="3"/><circle cx="1487" cy="872" r="14" fill="#FFFDF8" stroke="#23496e" stroke-width="3"/><circle cx="1517" cy="872" r="14" fill="#FFFDF8" stroke="#23496e" stroke-width="3"/><circle cx="1667" cy="872" r="14" fill="#FFFDF8" stroke="#23496e" stroke-width="3"/><circle cx="1697" cy="872" r="14" fill="#FFFDF8" stroke="#23496e" stroke-width="3"/><circle cx="587" cy="722" r="14" fill="#FFFDF8" stroke="#23496e" stroke-width="3"/><circle cx="617" cy="722" r="14" fill="#FFFDF8" stroke="#23496e" stroke-width="3"/><circle cx="767" cy="722" r="14" fill="#FFFDF8" stroke="#23496e" stroke-width="3"/><circle cx="797" cy="722" r="14" fill="#FFFDF8" stroke="#23496e" stroke-width="3"/><circle cx="947" cy="722" r="14" fill="#FFFDF8" stroke="#23496e" stroke-width="3"/><circle cx="977" cy="722" r="14" fill="#FFFDF8" stroke="#23496e" stroke-width="3"/><circle cx="1127" cy="722" r="14" fill="#FFFDF8" stroke="#23496e" stroke-width="3"/><circle cx="1157" cy="722" r="14" fill="#FFFDF8" stroke="#23496e" stroke-width="3"/><circle cx="1307" cy="722" r="14" fill="#FFFDF8" stroke="#23496e" stroke-width="3"/><circle cx="1337" cy="722" r="14" fill="#FFFDF8" stroke="#23496e" stroke-width="3"/><circle cx="1487" cy="722" r="14" fill="#FFFDF8" stroke="#23496e" stroke-width="3"/><circle cx="1517" cy="722" r="14" fill="#FFFDF8" stroke="#23496e" stroke-width="3"/><circle cx="1667" cy="722" r="14" fill="#FFFDF8" stroke="#23496e" stroke-width="3"/><circle cx="1697" cy="722" r="14" fill="#FFFDF8" stroke="#23496e" stroke-width="3"/><circle cx="587" cy="572" r="14" fill="#FFFDF8" stroke="#23496e" stroke-width="3"/><circle cx="617" cy="572" r="14" fill="#FFFDF8" stroke="#23496e" stroke-width="3"/><circle cx="767" cy="572" r="14" fill="#FFFDF8" stroke="#23496e" stroke-width="3"/><circle cx="797" cy="572" r="14" fill="#FFFDF8" stroke="#23496e" stroke-width="3"/><circle cx="947" cy="572" r="14" fill="#FFFDF8" stroke="#23496e" stroke-width="3"/><circle cx="977" cy="572" r="14" fill="#FFFDF8" stroke="#23496e" stroke-width="3"/><circle cx="1127" cy="572" r="14" fill="#FFFDF8" stroke="#23496e" stroke-width="3"/><circle cx="1157" cy="572" r="14" fill="#FFFDF8" stroke="#23496e" stroke-width="3"/><circle cx="1307" cy="572" r="14" fill="#FFFDF8" stroke="#23496e" stroke-width="3"/><circle cx="1337" cy="572" r="14" fill="#FFFDF8" stroke="#23496e" stroke-width="3"/><circle cx="1487" cy="572" r="14" fill="#FFFDF8" stroke="#23496e" stroke-width="3"/><circle cx="1517" cy="572" r="14" fill="#FFFDF8" stroke="#23496e" stroke-width="3"/><circle cx="1667" cy="572" r="14" fill="#FFFDF8" stroke="#23496e" stroke-width="3"/><circle cx="1697" cy="572" r="14" fill="#FFFDF8" stroke="#23496e" stroke-width="3"/><text x="1907.0" y="962.0" text-anchor="middle" dominant-baseline="middle" font-family="Arial, PingFang SC, sans-serif" font-size="13" font-weight="700" fill="#2E6F98" stroke="#FFFDF8" stroke-width="1" paint-order="stroke">0</text><text x="1967.0" y="962.0" text-anchor="middle" dominant-baseline="middle" font-family="Arial, PingFang SC, sans-serif" font-size="13" font-weight="700" fill="#2E6F98" stroke="#FFFDF8" stroke-width="1" paint-order="stroke">1</text><text x="1847.0" y="902.0" text-anchor="middle" dominant-baseline="middle" font-family="Arial, PingFang SC, sans-serif" font-size="13" font-weight="700" fill="#2E6F98" stroke="#FFFDF8" stroke-width="1" paint-order="stroke">2</text><text x="1907.0" y="902.0" text-anchor="middle" dominant-baseline="middle" font-family="Arial, PingFang SC, sans-serif" font-size="13" font-weight="700" fill="#2E6F98" stroke="#FFFDF8" stroke-width="1" paint-order="stroke">3</text><text x="1967.0" y="902.0" text-anchor="middle" dominant-baseline="middle" font-family="Arial, PingFang SC, sans-serif" font-size="13" font-weight="700" fill="#2E6F98" stroke="#FFFDF8" stroke-width="1" paint-order="stroke">4</text><text x="2027.0" y="902.0" text-anchor="middle" dominant-baseline="middle" font-family="Arial, PingFang SC, sans-serif" font-size="13" font-weight="700" fill="#2E6F98" stroke="#FFFDF8" stroke-width="1" paint-order="stroke">5</text><text x="1847.0" y="842.0" text-anchor="middle" dominant-baseline="middle" font-family="Arial, PingFang SC, sans-serif" font-size="13" font-weight="700" fill="#2E6F98" stroke="#FFFDF8" stroke-width="1" paint-order="stroke">6</text><text x="1907.0" y="842.0" text-anchor="middle" dominant-baseline="middle" font-family="Arial, PingFang SC, sans-serif" font-size="13" font-weight="700" fill="#2E6F98" stroke="#FFFDF8" stroke-width="1" paint-order="stroke">7</text><text x="1967.0" y="842.0" text-anchor="middle" dominant-baseline="middle" font-family="Arial, PingFang SC, sans-serif" font-size="13" font-weight="700" fill="#2E6F98" stroke="#FFFDF8" stroke-width="1" paint-order="stroke">8</text><text x="2027.0" y="842.0" text-anchor="middle" dominant-baseline="middle" font-family="Arial, PingFang SC, sans-serif" font-size="13" font-weight="700" fill="#2E6F98" stroke="#FFFDF8" stroke-width="1" paint-order="stroke">9</text><text x="1847.0" y="782.0" text-anchor="middle" dominant-baseline="middle" font-family="Arial, PingFang SC, sans-serif" font-size="13" font-weight="700" fill="#2E6F98" stroke="#FFFDF8" stroke-width="1" paint-order="stroke">10</text><text x="1907.0" y="782.0" text-anchor="middle" dominant-baseline="middle" font-family="Arial, PingFang SC, sans-serif" font-size="13" font-weight="700" fill="#2E6F98" stroke="#FFFDF8" stroke-width="1" paint-order="stroke">11</text><text x="1967.0" y="782.0" text-anchor="middle" dominant-baseline="middle" font-family="Arial, PingFang SC, sans-serif" font-size="13" font-weight="700" fill="#2E6F98" stroke="#FFFDF8" stroke-width="1" paint-order="stroke">12</text><text x="2027.0" y="782.0" text-anchor="middle" dominant-baseline="middle" font-family="Arial, PingFang SC, sans-serif" font-size="13" font-weight="700" fill="#2E6F98" stroke="#FFFDF8" stroke-width="1" paint-order="stroke">13</text><text x="1907.0" y="722.0" text-anchor="middle" dominant-baseline="middle" font-family="Arial, PingFang SC, sans-serif" font-size="13" font-weight="700" fill="#2E6F98" stroke="#FFFDF8" stroke-width="1" paint-order="stroke">14</text><text x="1967.0" y="722.0" text-anchor="middle" dominant-baseline="middle" font-family="Arial, PingFang SC, sans-serif" font-size="13" font-weight="700" fill="#2E6F98" stroke="#FFFDF8" stroke-width="1" paint-order="stroke">15</text><text x="317.0" y="782.0" text-anchor="middle" dominant-baseline="middle" font-family="Arial, PingFang SC, sans-serif" font-size="13" font-weight="700" fill="#8C7E16" stroke="#FFFDF8" stroke-width="1" paint-order="stroke">0</text><text x="377.0" y="782.0" text-anchor="middle" dominant-baseline="middle" font-family="Arial, PingFang SC, sans-serif" font-size="13" font-weight="700" fill="#8C7E16" stroke="#FFFDF8" stroke-width="1" paint-order="stroke">1</text><text x="257.0" y="722.0" text-anchor="middle" dominant-baseline="middle" font-family="Arial, PingFang SC, sans-serif" font-size="13" font-weight="700" fill="#8C7E16" stroke="#FFFDF8" stroke-width="1" paint-order="stroke">2</text><text x="317.0" y="722.0" text-anchor="middle" dominant-baseline="middle" font-family="Arial, PingFang SC, sans-serif" font-size="13" font-weight="700" fill="#8C7E16" stroke="#FFFDF8" stroke-width="1" paint-order="stroke">3</text><text x="377.0" y="722.0" text-anchor="middle" dominant-baseline="middle" font-family="Arial, PingFang SC, sans-serif" font-size="13" font-weight="700" fill="#8C7E16" stroke="#FFFDF8" stroke-width="1" paint-order="stroke">4</text><text x="257.0" y="662.0" text-anchor="middle" dominant-baseline="middle" font-family="Arial, PingFang SC, sans-serif" font-size="13" font-weight="700" fill="#8C7E16" stroke="#FFFDF8" stroke-width="1" paint-order="stroke">5</text><text x="317.0" y="662.0" text-anchor="middle" dominant-baseline="middle" font-family="Arial, PingFang SC, sans-serif" font-size="13" font-weight="700" fill="#8C7E16" stroke="#FFFDF8" stroke-width="1" paint-order="stroke">6</text><text x="377.0" y="662.0" text-anchor="middle" dominant-baseline="middle" font-family="Arial, PingFang SC, sans-serif" font-size="13" font-weight="700" fill="#8C7E16" stroke="#FFFDF8" stroke-width="1" paint-order="stroke">7</text></svg>