<svg xmlns="http://www.w3.org/2000/svg" width="1984" height="1189" viewBox="0 0 1984 1189" role="img" aria-label="MultiQ execution stage 32"><defs><filter id="blur"><feGaussianBlur stdDeviation="8"/></filter></defs><rect width="1984" height="1189" fill="white"/><rect x="557" y="62" width="870" height="150" fill="white" stroke="#A785C1" stroke-width="3"/><text x="557.0" y="53.0" text-anchor="start" dominant-baseline="middle" font-family="Arial, PingFang SC, sans-serif" font-size="19" font-weight="700" fill="#A785C1">RZ0</text><rect x="557" y="977" width="870" height="150" fill="white" stroke="#A785C1" stroke-width="3"/><text x="557.0" y="968.0" text-anchor="start" dominant-baseline="middle" font-family="Arial, PingFang SC, sans-serif" font-size="19" font-weight="700" fill="#A785C1">RZ1</text><rect x="62" y="407" width="270" height="450" fill="white" stroke="#70B694" stroke-width="3"/><text x="62.0" y="398.0" text-anchor="start" dominant-baseline="middle" font-family="Arial, PingFang SC, sans-serif" font-size="19" font-weight="700" fill="#70B694">SZ0</text><rect x="1652" y="407" width="270" height="450" fill="white" stroke="#70B694" stroke-width="3"/><text x="1652.0" y="398.0" text-anchor="start" dominant-baseline="middle" font-family="Arial, PingFang SC, sans-serif" font-size="19" font-weight="700" fill="#70B694">SZ1</text><rect x="362" y="272" width="1260" height="630" fill="white" stroke="#709DCC" stroke-width="3"/><text x="362.0" y="263.0" text-anchor="start" dominant-baseline="middle" font-family="Arial, PingFang SC, sans-serif" font-size="19" font-weight="700" fill="#709DCC">EZ</text><rect x="748" y="1048" width="68" height="68" rx="15" fill="#DCECF7"/><rect x="808" y="1048" width="68" height="68" rx="15" fill="#DCECF7"/><rect x="868" y="1048" width="68" height="68" rx="15" fill="#DCECF7"/><rect x="928" y="1048" width="68" height="68" rx="15" fill="#DCECF7"/><rect x="988" y="1048" width="68" height="68" rx="15" fill="#DCECF7"/><rect x="1048" y="1048" width="68" height="68" rx="15" fill="#DCECF7"/><rect x="1108" y="1048" width="68" height="68" rx="15" fill="#DCECF7"/><rect x="1168" y="1048" width="68" height="68" rx="15" fill="#DCECF7"/><rect x="1228" y="1048" width="68" height="68" rx="15" fill="#DCECF7"/><rect x="808" y="988" width="68" height="68" rx="15" fill="#DCECF7"/><rect x="868" y="988" width="68" height="68" rx="15" fill="#DCECF7"/><rect x="928" y="988" width="68" height="68" rx="15" fill="#DCECF7"/><rect x="988" y="988" width="68" height="68" rx="15" fill="#DCECF7"/><rect x="1048" y="988" width="68" height="68" rx="15" fill="#DCECF7"/><rect x="1108" y="988" width="68" height="68" rx="15" fill="#DCECF7"/><rect x="1168" y="988" width="68" height="68" rx="15" fill="#DCECF7"/><rect x="568" y="133" width="68" height="68" rx="15" fill="#F7EFC8"/><rect x="628" y="133" width="68" height="68" rx="15" fill="#F7EFC8"/><rect x="688" y="133" width="68" height="68" rx="15" fill="#F7EFC8"/><rect x="748" y="133" width="68" height="68" rx="15" fill="#F7EFC8"/><rect x="568" y="73" width="68" height="68" rx="15" fill="#F7EFC8"/><rect x="628" y="73" width="68" height="68" rx="15" fill="#F7EFC8"/><rect x="688" y="73" width="68" height="68" rx="15" fill="#F7EFC8"/><rect x="748" y="73" width="68" height="68" rx="15" fill="#F7EFC8"/><rect x="988" y="133" width="68" height="68" rx="15" fill="#DDF2E7"/><rect x="928" y="73" width="68" height="68" rx="15" fill="#DDF2E7"/><rect x="988" y="73" width="68" height="68" rx="15" fill="#DDF2E7"/><rect x="1048" y="73" width="68" height="68" rx="15" fill="#DDF2E7"/><circle cx="782" cy="1082" r="21" fill="#C72BFF" opacity=".32" filter="url(#blur)"/><circle cx="782" cy="1082" r="18" fill="#C72BFF" opacity=".48"/><circle cx="842" cy="1082" r="21" fill="#C72BFF" opacity=".32" filter="url(#blur)"/><circle cx="842" cy="1082" r="18" fill="#C72BFF" opacity=".48"/><circle cx="902" cy="1082" r="21" fill="#C72BFF" opacity=".32" filter="url(#blur)"/><circle cx="902" cy="1082" r="18" fill="#C72BFF" opacity=".48"/><circle cx="962" cy="1082" r="21" fill="#C72BFF" opacity=".32" filter="url(#blur)"/><circle cx="962" cy="1082" r="18" fill="#C72BFF" opacity=".48"/><circle cx="1022" cy="1082" r="21" fill="#C72BFF" opacity=".32" filter="url(#blur)"/><circle cx="1022" cy="1082" r="18" fill="#C72BFF" opacity=".48"/><circle cx="1082" cy="1082" r="21" fill="#C72BFF" opacity=".32" filter="url(#blur)"/><circle cx="1082" cy="1082" r="18" fill="#C72BFF" opacity=".48"/><circle cx="1142" cy="1082" r="21" fill="#C72BFF" opacity=".32" filter="url(#blur)"/><circle cx="1142" cy="1082" r="18" fill="#C72BFF" opacity=".48"/><circle cx="1202" cy="1082" r="21" fill="#C72BFF" opacity=".32" filter="url(#blur)"/><circle cx="1202" cy="1082" r="18" fill="#C72BFF" opacity=".48"/><circle cx="1262" cy="1082" r="21" fill="#C72BFF" opacity=".32" filter="url(#blur)"/><circle cx="1262" cy="1082" r="18" fill="#C72BFF" opacity=".48"/><circle cx="842" cy="1022" r="21" fill="#C72BFF" opacity=".32" filter="url(#blur)"/><circle cx="842" cy="1022" r="18" fill="#C72BFF" opacity=".48"/><circle cx="902" cy="1022" r="21" fill="#C72BFF" opacity=".32" filter="url(#blur)"/><circle cx="902" cy="1022" r="18" fill="#C72BFF" opacity=".48"/><circle cx="962" cy="1022" r="21" fill="#C72BFF" opacity=".32" filter="url(#blur)"/><circle cx="962" cy="1022" r="18" fill="#C72BFF" opacity=".48"/><circle cx="1022" cy="1022" r="21" fill="#C72BFF" opacity=".32" filter="url(#blur)"/><circle cx="1022" cy="1022" r="18" fill="#C72BFF" opacity=".48"/><circle cx="1082" cy="1022" r="21" fill="#C72BFF" opacity=".32" filter="url(#blur)"/><circle cx="1082" cy="1022" r="18" fill="#C72BFF" opacity=".48"/><circle cx="1142" cy="1022" r="21" fill="#C72BFF" opacity=".32" filter="url(#blur)"/><circle cx="1142" cy="1022" r="18" fill="#C72BFF" opacity=".48"/><circle cx="1202" cy="1022" r="21" fill="#C72BFF" opacity=".32" filter="url(#blur)"/><circle cx="1202" cy="1022" r="18" fill="#C72BFF" opacity=".48"/><circle cx="602" cy="167" r="14" fill="#FFFDF8" stroke="#23496e" stroke-width="3"/><circle cx="662" cy="167" r="14" fill="#FFFDF8" stroke="#23496e" stroke-width="3"/><circle cx="722" cy="167" r="14" fill="#FFFDF8" stroke="#23496e" stroke-width="3"/><circle cx="782" cy="167" r="14" fill="#FFFDF8" stroke="#23496e" stroke-width="3"/><circle cx="842" cy="167" r="14" fill="#FFFDF8" stroke="#54605B" stroke-width="3" stroke-dasharray="5 4"/><circle cx="902" cy="167" r="14" fill="#FFFDF8" stroke="#54605B" stroke-width="3" stroke-dasharray="5 4"/><circle cx="962" cy="167" r="14" fill="#FFFDF8" stroke="#54605B" stroke-width="3" stroke-dasharray="5 4"/><circle cx="1022" cy="167" r="14" fill="#FFFDF8" stroke="#23496e" stroke-width="3"/><circle cx="1082" cy="167" r="14" fill="#FFFDF8" stroke="#54605B" stroke-width="3" stroke-dasharray="5 4"/><circle cx="1142" cy="167" r="14" fill="#FFFDF8" stroke="#54605B" stroke-width="3" stroke-dasharray="5 4"/><circle cx="1202" cy="167" r="14" fill="#FFFDF8" stroke="#54605B" stroke-width="3" stroke-dasharray="5 4"/><circle cx="1262" cy="167" r="14" fill="#FFFDF8" stroke="#54605B" stroke-width="3" stroke-dasharray="5 4"/><circle cx="1322" cy="167" r="14" fill="#FFFDF8" stroke="#54605B" stroke-width="3" stroke-dasharray="5 4"/><circle cx="1382" cy="167" r="14" fill="#FFFDF8" stroke="#54605B" stroke-width="3" stroke-dasharray="5 4"/><circle cx="602" cy="107" r="14" fill="#FFFDF8" stroke="#23496e" stroke-width="3"/><circle cx="662" cy="107" r="14" fill="#FFFDF8" stroke="#23496e" stroke-width="3"/><circle cx="722" cy="107" r="14" fill="#FFFDF8" stroke="#23496e" stroke-width="3"/><circle cx="782" cy="107" r="14" fill="#FFFDF8" stroke="#23496e" stroke-width="3"/><circle cx="842" cy="107" r="14" fill="#FFFDF8" stroke="#54605B" stroke-width="3" stroke-dasharray="5 4"/><circle cx="902" cy="107" r="14" fill="#FFFDF8" stroke="#54605B" stroke-width="3" stroke-dasharray="5 4"/><circle cx="962" cy="107" r="14" fill="#FFFDF8" stroke="#23496e" stroke-width="3"/><circle cx="1022" cy="107" r="14" fill="#FFFDF8" stroke="#23496e" stroke-width="3"/><circle cx="1082" cy="107" r="14" fill="#FFFDF8" stroke="#23496e" stroke-width="3"/><circle cx="1142" cy="107" r="14" fill="#FFFDF8" stroke="#54605B" stroke-width="3" stroke-dasharray="5 4"/><circle cx="1202" cy="107" r="14" fill="#FFFDF8" stroke="#54605B" stroke-width="3" stroke-dasharray="5 4"/><circle cx="1262" cy="107" r="14" fill="#FFFDF8" stroke="#54605B" stroke-width="3" stroke-dasharray="5 4"/><circle cx="1322" cy="107" r="14" fill="#FFFDF8" stroke="#54605B" stroke-width="3" stroke-dasharray="5 4"/><circle cx="1382" cy="107" r="14" fill="#FFFDF8" stroke="#54605B" stroke-width="3" stroke-dasharray="5 4"/><circle cx="602" cy="1082" r="14" fill="#FFFDF8" stroke="#54605B" stroke-width="3" stroke-dasharray="5 4"/><circle cx="662" cy="1082" r="14" fill="#FFFDF8" stroke="#54605B" stroke-width="3" stroke-dasharray="5 4"/><circle cx="722" cy="1082" r="14" fill="#FFFDF8" stroke="#54605B" stroke-width="3" stroke-dasharray="5 4"/><circle cx="782" cy="1082" r="14" fill="#FFFDF8" stroke="#C72BFF" stroke-width="3"/><circle cx="842" cy="1082" r="14" fill="#FFFDF8" stroke="#C72BFF" stroke-width="3"/><circle cx="902" cy="1082" r="14" fill="#FFFDF8" stroke="#C72BFF" stroke-width="3"/><circle cx="962" cy="1082" r="14" fill="#FFFDF8" stroke="#C72BFF" stroke-width="3"/><circle cx="1022" cy="1082" r="14" fill="#FFFDF8" stroke="#C72BFF" stroke-width="3"/><circle cx="1082" cy="1082" r="14" fill="#FFFDF8" stroke="#C72BFF" stroke-width="3"/><circle cx="1142" cy="1082" r="14" fill="#FFFDF8" stroke="#C72BFF" stroke-width="3"/><circle cx="1202" cy="1082" r="14" fill="#FFFDF8" stroke="#C72BFF" stroke-width="3"/><circle cx="1262" cy="1082" r="14" fill="#FFFDF8" stroke="#C72BFF" stroke-width="3"/><circle cx="1322" cy="1082" r="14" fill="#FFFDF8" stroke="#54605B" stroke-width="3" stroke-dasharray="5 4"/><circle cx="1382" cy="1082" r="14" fill="#FFFDF8" stroke="#54605B" stroke-width="3" stroke-dasharray="5 4"/><circle cx="602" cy="1022" r="14" fill="#FFFDF8" stroke="#54605B" stroke-width="3" stroke-dasharray="5 4"/><circle cx="662" cy="1022" r="14" fill="#FFFDF8" stroke="#54605B" stroke-width="3" stroke-dasharray="5 4"/><circle cx="722" cy="1022" r="14" fill="#FFFDF8" stroke="#54605B" stroke-width="3" stroke-dasharray="5 4"/><circle cx="782" cy="1022" r="14" fill="#FFFDF8" stroke="#54605B" stroke-width="3" stroke-dasharray="5 4"/><circle cx="842" cy="1022" r="14" fill="#FFFDF8" stroke="#C72BFF" stroke-width="3"/><circle cx="902" cy="1022" r="14" fill="#FFFDF8" stroke="#C72BFF" stroke-width="3"/><circle cx="962" cy="1022" r="14" fill="#FFFDF8" stroke="#C72BFF" stroke-width="3"/><circle cx="1022" cy="1022" r="14" fill="#FFFDF8" stroke="#C72BFF" stroke-width="3"/><circle cx="1082" cy="1022" r="14" fill="#FFFDF8" stroke="#C72BFF" stroke-width="3"/><circle cx="1142" cy="1022" r="14" fill="#FFFDF8" stroke="#C72BFF" stroke-width="3"/><circle cx="1202" cy="1022" r="14" fill="#FFFDF8" stroke="#C72BFF" stroke-width="3"/><circle cx="1262" cy="1022" r="14" fill="#FFFDF8" stroke="#54605B" stroke-width="3" stroke-dasharray="5 4"/><circle cx="1322" cy="1022" r="14" fill="#FFFDF8" stroke="#54605B" stroke-width="3" stroke-dasharray="5 4"/><circle cx="1382" cy="1022" r="14" fill="#FFFDF8" stroke="#54605B" stroke-width="3" stroke-dasharray="5 4"/><circle cx="107" cy="812" r="14" fill="#FFFDF8" stroke="#54605B" stroke-width="3" stroke-dasharray="5 4"/><circle cx="167" cy="812" r="14" fill="#FFFDF8" stroke="#54605B" stroke-width="3" stroke-dasharray="5 4"/><circle cx="227" cy="812" r="14" fill="#FFFDF8" stroke="#54605B" stroke-width="3" stroke-dasharray="5 4"/><circle cx="287" cy="812" r="14" fill="#FFFDF8" stroke="#54605B" stroke-width="3" stroke-dasharray="5 4"/><circle cx="107" cy="752" r="14" fill="#FFFDF8" stroke="#54605B" stroke-width="3" stroke-dasharray="5 4"/><circle cx="167" cy="752" r="14" fill="#FFFDF8" stroke="#54605B" stroke-width="3" stroke-dasharray="5 4"/><circle cx="227" cy="752" r="14" fill="#FFFDF8" stroke="#54605B" stroke-width="3" stroke-dasharray="5 4"/><circle cx="287" cy="752" r="14" fill="#FFFDF8" stroke="#54605B" stroke-width="3" stroke-dasharray="5 4"/><circle cx="107" cy="692" r="14" fill="#FFFDF8" stroke="#54605B" stroke-width="3" stroke-dasharray="5 4"/><circle cx="167" cy="692" r="14" fill="#FFFDF8" stroke="#54605B" stroke-width="3" stroke-dasharray="5 4"/><circle cx="227" cy="692" r="14" fill="#FFFDF8" stroke="#54605B" stroke-width="3" stroke-dasharray="5 4"/><circle cx="287" cy="692" r="14" fill="#FFFDF8" stroke="#54605B" stroke-width="3" stroke-dasharray="5 4"/><circle cx="107" cy="632" r="14" fill="#FFFDF8" stroke="#54605B" stroke-width="3" stroke-dasharray="5 4"/><circle cx="167" cy="632" r="14" fill="#FFFDF8" stroke="#54605B" stroke-width="3" stroke-dasharray="5 4"/><circle cx="227" cy="632" r="14" fill="#FFFDF8" stroke="#54605B" stroke-width="3" stroke-dasharray="5 4"/><circle cx="287" cy="632" r="14" fill="#FFFDF8" stroke="#54605B" stroke-width="3" stroke-dasharray="5 4"/><circle cx="107" cy="572" r="14" fill="#FFFDF8" stroke="#54605B" stroke-width="3" stroke-dasharray="5 4"/><circle cx="167" cy="572" r="14" fill="#FFFDF8" stroke="#54605B" stroke-width="3" stroke-dasharray="5 4"/><circle cx="227" cy="572" r="14" fill="#FFFDF8" stroke="#54605B" stroke-width="3" stroke-dasharray="5 4"/><circle cx="287" cy="572" r="14" fill="#FFFDF8" stroke="#54605B" stroke-width="3" stroke-dasharray="5 4"/><circle cx="107" cy="512" r="14" fill="#FFFDF8" stroke="#54605B" stroke-width="3" stroke-dasharray="5 4"/><circle cx="167" cy="512" r="14" fill="#FFFDF8" stroke="#54605B" stroke-width="3" stroke-dasharray="5 4"/><circle cx="227" cy="512" r="14" fill="#FFFDF8" stroke="#54605B" stroke-width="3" stroke-dasharray="5 4"/><circle cx="287" cy="512" r="14" fill="#FFFDF8" stroke="#54605B" stroke-width="3" stroke-dasharray="5 4"/><circle cx="107" cy="452" r="14" fill="#FFFDF8" stroke="#54605B" stroke-width="3" stroke-dasharray="5 4"/><circle cx="167" cy="452" r="14" fill="#FFFDF8" stroke="#54605B" stroke-width="3" stroke-dasharray="5 4"/><circle cx="227" cy="452" r="14" fill="#FFFDF8" stroke="#54605B" stroke-width="3" stroke-dasharray="5 4"/><circle cx="287" cy="452" r="14" fill="#FFFDF8" stroke="#54605B" stroke-width="3" stroke-dasharray="5 4"/><circle cx="1697" cy="812" r="14" fill="#FFFDF8" stroke="#54605B" stroke-width="3" stroke-dasharray="5 4"/><circle cx="1757" cy="812" r="14" fill="#FFFDF8" stroke="#54605B" stroke-width="3" stroke-dasharray="5 4"/><circle cx="1817" cy="812" r="14" fill="#FFFDF8" stroke="#54605B" stroke-width="3" stroke-dasharray="5 4"/><circle cx="1877" cy="812" r="14" fill="#FFFDF8" stroke="#54605B" stroke-width="3" stroke-dasharray="5 4"/><circle cx="1697" cy="752" r="14" fill="#FFFDF8" stroke="#54605B" stroke-width="3" stroke-dasharray="5 4"/><circle cx="1757" cy="752" r="14" fill="#FFFDF8" stroke="#54605B" stroke-width="3" stroke-dasharray="5 4"/><circle cx="1817" cy="752" r="14" fill="#FFFDF8" stroke="#54605B" stroke-width="3" stroke-dasharray="5 4"/><circle cx="1877" cy="752" r="14" fill="#FFFDF8" stroke="#54605B" stroke-width="3" stroke-dasharray="5 4"/><circle cx="1697" cy="692" r="14" fill="#FFFDF8" stroke="#54605B" stroke-width="3" stroke-dasharray="5 4"/><circle cx="1757" cy="692" r="14" fill="#FFFDF8" stroke="#54605B" stroke-width="3" stroke-dasharray="5 4"/><circle cx="1817" cy="692" r="14" fill="#FFFDF8" stroke="#54605B" stroke-width="3" stroke-dasharray="5 4"/><circle cx="1877" cy="692" r="14" fill="#FFFDF8" stroke="#54605B" stroke-width="3" stroke-dasharray="5 4"/><circle cx="1697" cy="632" r="14" fill="#FFFDF8" stroke="#54605B" stroke-width="3" stroke-dasharray="5 4"/><circle cx="1757" cy="632" r="14" fill="#FFFDF8" stroke="#54605B" stroke-width="3" stroke-dasharray="5 4"/><circle cx="1817" cy="632" r="14" fill="#FFFDF8" stroke="#54605B" stroke-width="3" stroke-dasharray="5 4"/><circle cx="1877" cy="632" r="14" fill="#FFFDF8" stroke="#54605B" stroke-width="3" stroke-dasharray="5 4"/><circle cx="1697" cy="572" r="14" fill="#FFFDF8" stroke="#54605B" stroke-width="3" stroke-dasharray="5 4"/><circle cx="1757" cy="572" r="14" fill="#FFFDF8" stroke="#54605B" stroke-width="3" stroke-dasharray="5 4"/><circle cx="1817" cy="572" r="14" fill="#FFFDF8" stroke="#54605B" stroke-width="3" stroke-dasharray="5 4"/><circle cx="1877" cy="572" r="14" fill="#FFFDF8" stroke="#54605B" stroke-width="3" stroke-dasharray="5 4"/><circle cx="1697" cy="512" r="14" fill="#FFFDF8" stroke="#54605B" stroke-width="3" stroke-dasharray="5 4"/><circle cx="1757" cy="512" r="14" fill="#FFFDF8" stroke="#54605B" stroke-width="3" stroke-dasharray="5 4"/><circle cx="1817" cy="512" r="14" fill="#FFFDF8" stroke="#54605B" stroke-width="3" stroke-dasharray="5 4"/><circle cx="1877" cy="512" r="14" fill="#FFFDF8" stroke="#54605B" stroke-width="3" stroke-dasharray="5 4"/><circle cx="1697" cy="452" r="14" fill="#FFFDF8" stroke="#54605B" stroke-width="3" stroke-dasharray="5 4"/><circle cx="1757" cy="452" r="14" fill="#FFFDF8" stroke="#54605B" stroke-width="3" stroke-dasharray="5 4"/><circle cx="1817" cy="452" r="14" fill="#FFFDF8" stroke="#54605B" stroke-width="3" stroke-dasharray="5 4"/><circle cx="1877" cy="452" r="14" fill="#FFFDF8" stroke="#54605B" stroke-width="3" stroke-dasharray="5 4"/><circle cx="437" cy="812" r="14" fill="#FFFDF8" stroke="#54605B" stroke-width="3" stroke-dasharray="5 4"/><circle cx="467" cy="812" r="14" fill="#FFFDF8" stroke="#54605B" stroke-width="3" stroke-dasharray="5 4"/><circle cx="617" cy="812" r="14" fill="#FFFDF8" stroke="#54605B" stroke-width="3" stroke-dasharray="5 4"/><circle cx="647" cy="812" r="14" fill="#FFFDF8" stroke="#54605B" stroke-width="3" stroke-dasharray="5 4"/><circle cx="797" cy="812" r="14" fill="#FFFDF8" stroke="#54605B" stroke-width="3" stroke-dasharray="5 4"/><circle cx="827" cy="812" r="14" fill="#FFFDF8" stroke="#54605B" stroke-width="3" stroke-dasharray="5 4"/><circle cx="977" cy="812" r="14" fill="#FFFDF8" stroke="#54605B" stroke-width="3" stroke-dasharray="5 4"/><circle cx="1007" cy="812" r="14" fill="#FFFDF8" stroke="#54605B" stroke-width="3" stroke-dasharray="5 4"/><circle cx="1157" cy="812" r="14" fill="#FFFDF8" stroke="#54605B" stroke-width="3" stroke-dasharray="5 4"/><circle cx="1187" cy="812" r="14" fill="#FFFDF8" stroke="#54605B" stroke-width="3" stroke-dasharray="5 4"/><circle cx="1337" cy="812" r="14" fill="#FFFDF8" stroke="#54605B" stroke-width="3" stroke-dasharray="5 4"/><circle cx="1367" cy="812" r="14" fill="#FFFDF8" stroke="#54605B" stroke-width="3" stroke-dasharray="5 4"/><circle cx="1517" cy="812" r="14" fill="#FFFDF8" stroke="#54605B" stroke-width="3" stroke-dasharray="5 4"/><circle cx="1547" cy="812" r="14" fill="#FFFDF8" stroke="#54605B" stroke-width="3" stroke-dasharray="5 4"/><circle cx="437" cy="662" r="14" fill="#FFFDF8" stroke="#54605B" stroke-width="3" stroke-dasharray="5 4"/><circle cx="467" cy="662" r="14" fill="#FFFDF8" stroke="#54605B" stroke-width="3" stroke-dasharray="5 4"/><circle cx="617" cy="662" r="14" fill="#FFFDF8" stroke="#54605B" stroke-width="3" stroke-dasharray="5 4"/><circle cx="647" cy="662" r="14" fill="#FFFDF8" stroke="#54605B" stroke-width="3" stroke-dasharray="5 4"/><circle cx="797" cy="662" r="14" fill="#FFFDF8" stroke="#54605B" stroke-width="3" stroke-dasharray="5 4"/><circle cx="827" cy="662" r="14" fill="#FFFDF8" stroke="#54605B" stroke-width="3" stroke-dasharray="5 4"/><circle cx="977" cy="662" r="14" fill="#FFFDF8" stroke="#54605B" stroke-width="3" stroke-dasharray="5 4"/><circle cx="1007" cy="662" r="14" fill="#FFFDF8" stroke="#54605B" stroke-width="3" stroke-dasharray="5 4"/><circle cx="1157" cy="662" r="14" fill="#FFFDF8" stroke="#54605B" stroke-width="3" stroke-dasharray="5 4"/><circle cx="1187" cy="662" r="14" fill="#FFFDF8" stroke="#54605B" stroke-width="3" stroke-dasharray="5 4"/><circle cx="1337" cy="662" r="14" fill="#FFFDF8" stroke="#54605B" stroke-width="3" stroke-dasharray="5 4"/><circle cx="1367" cy="662" r="14" fill="#FFFDF8" stroke="#54605B" stroke-width="3" stroke-dasharray="5 4"/><circle cx="1517" cy="662" r="14" fill="#FFFDF8" stroke="#54605B" stroke-width="3" stroke-dasharray="5 4"/><circle cx="1547" cy="662" r="14" fill="#FFFDF8" stroke="#54605B" stroke-width="3" stroke-dasharray="5 4"/><circle cx="437" cy="512" r="14" fill="#FFFDF8" stroke="#54605B" stroke-width="3" stroke-dasharray="5 4"/><circle cx="467" cy="512" r="14" fill="#FFFDF8" stroke="#54605B" stroke-width="3" stroke-dasharray="5 4"/><circle cx="617" cy="512" r="14" fill="#FFFDF8" stroke="#54605B" stroke-width="3" stroke-dasharray="5 4"/><circle cx="647" cy="512" r="14" fill="#FFFDF8" stroke="#54605B" stroke-width="3" stroke-dasharray="5 4"/><circle cx="797" cy="512" r="14" fill="#FFFDF8" stroke="#54605B" stroke-width="3" stroke-dasharray="5 4"/><circle cx="827" cy="512" r="14" fill="#FFFDF8" stroke="#54605B" stroke-width="3" stroke-dasharray="5 4"/><circle cx="977" cy="512" r="14" fill="#FFFDF8" stroke="#54605B" stroke-width="3" stroke-dasharray="5 4"/><circle cx="1007" cy="512" r="14" fill="#FFFDF8" stroke="#54605B" stroke-width="3" stroke-dasharray="5 4"/><circle cx="1157" cy="512" r="14" fill="#FFFDF8" stroke="#54605B" stroke-width="3" stroke-dasharray="5 4"/><circle cx="1187" cy="512" r="14" fill="#FFFDF8" stroke="#54605B" stroke-width="3" stroke-dasharray="5 4"/><circle cx="1337" cy="512" r="14" fill="#FFFDF8" stroke="#54605B" stroke-width="3" stroke-dasharray="5 4"/><circle cx="1367" cy="512" r="14" fill="#FFFDF8" stroke="#54605B" stroke-width="3" stroke-dasharray="5 4"/><circle cx="1517" cy="512" r="14" fill="#FFFDF8" stroke="#54605B" stroke-width="3" stroke-dasharray="5 4"/><circle cx="1547" cy="512" r="14" fill="#FFFDF8" stroke="#54605B" stroke-width="3" stroke-dasharray="5 4"/><circle cx="437" cy="362" r="14" fill="#FFFDF8" stroke="#54605B" stroke-width="3" stroke-dasharray="5 4"/><circle cx="467" cy="362" r="14" fill="#FFFDF8" stroke="#54605B" stroke-width="3" stroke-dasharray="5 4"/><circle cx="617" cy="362" r="14" fill="#FFFDF8" stroke="#54605B" stroke-width="3" stroke-dasharray="5 4"/><circle cx="647" cy="362" r="14" fill="#FFFDF8" stroke="#54605B" stroke-width="3" stroke-dasharray="5 4"/><circle cx="797" cy="362" r="14" fill="#FFFDF8" stroke="#54605B" stroke-width="3" stroke-dasharray="5 4"/><circle cx="827" cy="362" r="14" fill="#FFFDF8" stroke="#54605B" stroke-width="3" stroke-dasharray="5 4"/><circle cx="977" cy="362" r="14" fill="#FFFDF8" stroke="#54605B" stroke-width="3" stroke-dasharray="5 4"/><circle cx="1007" cy="362" r="14" fill="#FFFDF8" stroke="#54605B" stroke-width="3" stroke-dasharray="5 4"/><circle cx="1157" cy="362" r="14" fill="#FFFDF8" stroke="#54605B" stroke-width="3" stroke-dasharray="5 4"/><circle cx="1187" cy="362" r="14" fill="#FFFDF8" stroke="#54605B" stroke-width="3" stroke-dasharray="5 4"/><circle cx="1337" cy="362" r="14" fill="#FFFDF8" stroke="#54605B" stroke-width="3" stroke-dasharray="5 4"/><circle cx="1367" cy="362" r="14" fill="#FFFDF8" stroke="#54605B" stroke-width="3" stroke-dasharray="5 4"/><circle cx="1517" cy="362" r="14" fill="#FFFDF8" stroke="#54605B" stroke-width="3" stroke-dasharray="5 4"/><circle cx="1547" cy="362" r="14" fill="#FFFDF8" stroke="#54605B" stroke-width="3" stroke-dasharray="5 4"/><text x="782.0" y="1082.0" text-anchor="middle" dominant-baseline="middle" font-family="Arial, PingFang SC, sans-serif" font-size="15" font-weight="700" fill="#2E6F98" stroke="#FFFDF8" stroke-width="1" paint-order="stroke">0</text><text x="842.0" y="1082.0" text-anchor="middle" dominant-baseline="middle" font-family="Arial, PingFang SC, sans-serif" font-size="15" font-weight="700" fill="#2E6F98" stroke="#FFFDF8" stroke-width="1" paint-order="stroke">1</text><text x="902.0" y="1082.0" text-anchor="middle" dominant-baseline="middle" font-family="Arial, PingFang SC, sans-serif" font-size="15" font-weight="700" fill="#2E6F98" stroke="#FFFDF8" stroke-width="1" paint-order="stroke">2</text><text x="962.0" y="1082.0" text-anchor="middle" dominant-baseline="middle" font-family="Arial, PingFang SC, sans-serif" font-size="15" font-weight="700" fill="#2E6F98" stroke="#FFFDF8" stroke-width="1" paint-order="stroke">3</text><text x="1022.0" y="1082.0" text-anchor="middle" dominant-baseline="middle" font-family="Arial, PingFang SC, sans-serif" font-size="15" font-weight="700" fill="#2E6F98" stroke="#FFFDF8" stroke-width="1" paint-order="stroke">4</text><text x="1082.0" y="1082.0" text-anchor="middle" dominant-baseline="middle" font-family="Arial, PingFang SC, sans-serif" font-size="15" font-weight="700" fill="#2E6F98" stroke="#FFFDF8" stroke-width="1" paint-order="stroke">5</text><text x="1142.0" y="1082.0" text-anchor="middle" dominant-baseline="middle" font-family="Arial, PingFang SC, sans-serif" font-size="15" font-weight="700" fill="#2E6F98" stroke="#FFFDF8" stroke-width="1" paint-order="stroke">6</text><text x="1202.0" y="1082.0" text-anchor="middle" dominant-baseline="middle" font-family="Arial, PingFang SC, sans-serif" font-size="15" font-weight="700" fill="#2E6F98" stroke="#FFFDF8" stroke-width="1" paint-order="stroke">7</text><text x="1262.0" y="1082.0" text-anchor="middle" dominant-baseline="middle" font-family="Arial, PingFang SC, sans-serif" font-size="15" font-weight="700" fill="#2E6F98" stroke="#FFFDF8" stroke-width="1" paint-order="stroke">8</text><text x="842.0" y="1022.0" text-anchor="middle" dominant-baseline="middle" font-family="Arial, PingFang SC, sans-serif" font-size="15" font-weight="700" fill="#2E6F98" stroke="#FFFDF8" stroke-width="1" paint-order="stroke">9</text><text x="902.0" y="1022.0" text-anchor="middle" dominant-baseline="middle" font-family="Arial, PingFang SC, sans-serif" font-size="15" font-weight="700" fill="#2E6F98" stroke="#FFFDF8" stroke-width="1" paint-order="stroke">10</text><text x="962.0" y="1022.0" text-anchor="middle" dominant-baseline="middle" font-family="Arial, PingFang SC, sans-serif" font-size="15" font-weight="700" fill="#2E6F98" stroke="#FFFDF8" stroke-width="1" paint-order="stroke">11</text><text x="1022.0" y="1022.0" text-anchor="middle" dominant-baseline="middle" font-family="Arial, PingFang SC, sans-serif" font-size="15" font-weight="700" fill="#2E6F98" stroke="#FFFDF8" stroke-width="1" paint-order="stroke">12</text><text x="1082.0" y="1022.0" text-anchor="middle" dominant-baseline="middle" font-family="Arial, PingFang SC, sans-serif" font-size="15" font-weight="700" fill="#2E6F98" stroke="#FFFDF8" stroke-width="1" paint-order="stroke">13</text><text x="1142.0" y="1022.0" text-anchor="middle" dominant-baseline="middle" font-family="Arial, PingFang SC, sans-serif" font-size="15" font-weight="700" fill="#2E6F98" stroke="#FFFDF8" stroke-width="1" paint-order="stroke">14</text><text x="1202.0" y="1022.0" text-anchor="middle" dominant-baseline="middle" font-family="Arial, PingFang SC, sans-serif" font-size="15" font-weight="700" fill="#2E6F98" stroke="#FFFDF8" stroke-width="1" paint-order="stroke">15</text><text x="602.0" y="167.0" text-anchor="middle" dominant-baseline="middle" font-family="Arial, PingFang SC, sans-serif" font-size="15" font-weight="700" fill="#8C7E16" stroke="#FFFDF8" stroke-width="1" paint-order="stroke">0</text><text x="662.0" y="167.0" text-anchor="middle" dominant-baseline="middle" font-family="Arial, PingFang SC, sans-serif" font-size="15" font-weight="700" fill="#8C7E16" stroke="#FFFDF8" stroke-width="1" paint-order="stroke">1</text><text x="722.0" y="167.0" text-anchor="middle" dominant-baseline="middle" font-family="Arial, PingFang SC, sans-serif" font-size="15" font-weight="700" fill="#8C7E16" stroke="#FFFDF8" stroke-width="1" paint-order="stroke">2</text><text x="782.0" y="167.0" text-anchor="middle" dominant-baseline="middle" font-family="Arial, PingFang SC, sans-serif" font-size="15" font-weight="700" fill="#8C7E16" stroke="#FFFDF8" stroke-width="1" paint-order="stroke">3</text><text x="602.0" y="107.0" text-anchor="middle" dominant-baseline="middle" font-family="Arial, PingFang SC, sans-serif" font-size="15" font-weight="700" fill="#8C7E16" stroke="#FFFDF8" stroke-width="1" paint-order="stroke">4</text><text x="662.0" y="107.0" text-anchor="middle" dominant-baseline="middle" font-family="Arial, PingFang SC, sans-serif" font-size="15" font-weight="700" fill="#8C7E16" stroke="#FFFDF8" stroke-width="1" paint-order="stroke">5</text><text x="722.0" y="107.0" text-anchor="middle" dominant-baseline="middle" font-family="Arial, PingFang SC, sans-serif" font-size="15" font-weight="700" fill="#8C7E16" stroke="#FFFDF8" stroke-width="1" paint-order="stroke">6</text><text x="782.0" y="107.0" text-anchor="middle" dominant-baseline="middle" font-family="Arial, PingFang SC, sans-serif" font-size="15" font-weight="700" fill="#8C7E16" stroke="#FFFDF8" stroke-width="1" paint-order="stroke">7</text><text x="1022.0" y="167.0" text-anchor="middle" dominant-baseline="middle" font-family="Arial, PingFang SC, sans-serif" font-size="15" font-weight="700" fill="#287B5D" stroke="#FFFDF8" stroke-width="1" paint-order="stroke">0</text><text x="962.0" y="107.0" text-anchor="middle" dominant-baseline="middle" font-family="Arial, PingFang SC, sans-serif" font-size="15" font-weight="700" fill="#287B5D" stroke="#FFFDF8" stroke-width="1" paint-order="stroke">1</text><text x="1022.0" y="107.0" text-anchor="middle" dominant-baseline="middle" font-family="Arial, PingFang SC, sans-serif" font-size="15" font-weight="700" fill="#287B5D" stroke="#FFFDF8" stroke-width="1" paint-order="stroke">2</text><text x="1082.0" y="107.0" text-anchor="middle" dominant-baseline="middle" font-family="Arial, PingFang SC, sans-serif" font-size="15" font-weight="700" fill="#287B5D" stroke="#FFFDF8" stroke-width="1" paint-order="stroke">3</text></svg>